<svg xmlns="http://www.w3.org/2000/svg" width="202.652" height="61.266" viewBox="0 0 202.652 61.266">
  <g id="Grupo_494" data-name="Grupo 494" transform="translate(-629 -439)">
    <path id="Caminho_402" data-name="Caminho 402" d="M94.321,61.494H64.657a2.238,2.238,0,0,0-2.824,2.187V74.068a2.265,2.265,0,0,0,4.529,0V66.024H94.321a2.265,2.265,0,0,0,0-4.53" transform="translate(584.896 395.193)" fill="#fff"/>
    <path id="Caminho_403" data-name="Caminho 403" d="M75.019,101.036a2.3,2.3,0,1,0-4.608,0v16.986H33.9a2.3,2.3,0,0,0,0,4.608H72.716a2.3,2.3,0,0,0,2.3-2.3h0Z" transform="translate(606.462 368.576)" fill="#fff"/>
    <path id="Caminho_404" data-name="Caminho 404" d="M89.9,100.878a2.3,2.3,0,1,0-4.593,0v8.368H67.093a2.265,2.265,0,0,0,0,4.53h20.54a2.265,2.265,0,0,0,2.264-2.265c0-.005,0-.01,0-.016s0-.01,0-.016Z" transform="translate(582.758 368.683)" fill="#ffbe00"/>
    <path id="Caminho_405" data-name="Caminho 405" d="M81.7,31.18c-.02,0-.038.005-.059.006s-.038-.006-.058-.006H34.017A2.072,2.072,0,0,0,31.9,33.587a2.14,2.14,0,0,0-.026.259V64.226a2.226,2.226,0,1,0,4.452,0V35.476H79.274v5.7a2.421,2.421,0,1,0,4.842,0V33.6A2.421,2.421,0,0,0,81.7,31.18" transform="translate(606.268 416.76)" fill="#ffbe00"/>
    <path id="Caminho_406" data-name="Caminho 406" d="M59.042.037H7.576A2.242,2.242,0,0,0,7.3.065C7.21.056,7.124.046,7.029.037,1.015-.51,0,5.192,0,5.192V49.863a2.343,2.343,0,0,0,4.686,0V5.816C4.709,4.407,7.255,4.7,7.255,4.7l.006-.007a2.323,2.323,0,0,0,.315.032H59.042a2.343,2.343,0,1,0,0-4.686" transform="translate(629 439)" fill="#fff"/>
    <path id="Caminho_407" data-name="Caminho 407" d="M61.579,126.066v-25.03a2.3,2.3,0,1,0-4.608,0V121.73a4.974,4.974,0,0,0,0,.9v1.133c0,.023.005.044.006.066-.171,2.613-1.739,3.1-2.56,3.175H2.616a2.343,2.343,0,0,0,0,4.686H55.41a2.339,2.339,0,0,0,.493-.054c5.882-.565,5.677-5.569,5.677-5.569" transform="translate(628.805 368.576)" fill="#ffbe00"/>
    <path id="Caminho_408" data-name="Caminho 408" d="M241.624,66.22V31.054h6.656L260.9,49.332,273.81,31.054h6.258V61.849s.894,3.378-3.974,4.371h-4.867V48.637L263.479,60.26l-5.066.2-8.047-11.821.3,13.907a4.7,4.7,0,0,1-4.57,3.676Z" transform="translate(456.654 416.85)" fill="#ffbe00"/>
    <path id="Caminho_409" data-name="Caminho 409" d="M396.15,92.415V80.792s.1-12.915,15.795-13.014v9.04s-6.556-.993-6.953,5.166l-.2,5.86s-.5,4.57-4.57,4.57Z" transform="translate(346.433 390.655)" fill="#ffbe00"/>
    <path id="Caminho_410" data-name="Caminho 410" d="M439.806,136.727h4.967s2.086,6.159-4.967,4.868Z" transform="translate(315.294 341.475)" fill="#ffbe00"/>
    <path id="Caminho_411" data-name="Caminho 411" d="M487.619,31.053h8.941V57.279h12.616s4.967.2,4.967,4.768v4.172H487.619Z" transform="translate(281.19 416.851)" fill="#fff"/>
    <path id="Caminho_412" data-name="Caminho 412" d="M596.066,39.7V31.053h8.841V36.02s-.5,3.279-3.576,3.676Z" transform="translate(203.836 416.851)" fill="#fff"/>
    <path id="Caminho_413" data-name="Caminho 413" d="M596.066,67.778h8.841V88.242s-.7,4.47-3.775,4.172h-5.066Z" transform="translate(203.836 390.655)" fill="#fff"/>
    <path id="Caminho_414" data-name="Caminho 414" d="M647,31.053h8.444v6.556H661.7v8.047h-6.059l.1,8.245s.994,3.974,6.954,3.378v8.94S651.568,68.207,647,55.49Z" transform="translate(167.507 416.851)" fill="#fff"/>
    <path id="Caminho_415" data-name="Caminho 415" d="M242.15,178.429l2.861-7.648H246.2l2.754,7.648h-1.137l-.745-2.223H244l-.8,2.223Zm2.181-3.137h2.36l-1.137-3.384Z" transform="translate(456.279 317.185)" fill="#fff"/>
    <path id="Caminho_416" data-name="Caminho 416" d="M292.676,178.428V170.78h3.637a2.906,2.906,0,0,1,1.2.245,2.066,2.066,0,0,1,.877.722,1.958,1.958,0,0,1,.328,1.139,1.831,1.831,0,0,1-1.054,1.776,1.082,1.082,0,0,1,.631.462,1.851,1.851,0,0,1,.254.755,9.308,9.308,0,0,1,.052,1.092,4.486,4.486,0,0,0,.083.9.485.485,0,0,0,.332.387v.171h-1.278a4.5,4.5,0,0,1-.138-1.186q-.016-.8-.051-1.142a1.105,1.105,0,0,0-.313-.638,1.247,1.247,0,0,0-.945-.3H293.7v3.267Zm1.021-4.16h2.615a1.4,1.4,0,0,0,.731-.179,1.163,1.163,0,0,0,.448-.477,1.6,1.6,0,0,0,.171-.63,1.459,1.459,0,0,0-.3-.932,1.159,1.159,0,0,0-.967-.377h-2.7Z" transform="translate(420.239 317.185)" fill="#fff"/>
    <path id="Caminho_417" data-name="Caminho 417" d="M344.605,174.773V173.9h3.339v4.075h-.657L347.03,177a2.556,2.556,0,0,1-.645.631,3.116,3.116,0,0,1-.868.415,3.4,3.4,0,0,1-1,.146,4.025,4.025,0,0,1-1.652-.309,2.776,2.776,0,0,1-1.108-.862,3.6,3.6,0,0,1-.605-1.295,6.616,6.616,0,0,1-.188-1.63,4.585,4.585,0,0,1,.4-1.884,3.563,3.563,0,0,1,1.222-1.485,3.361,3.361,0,0,1,1.99-.578,3.878,3.878,0,0,1,1.454.283,3.04,3.04,0,0,1,1.2.851,2.514,2.514,0,0,1,.585,1.376h-.989a1.847,1.847,0,0,0-.865-1.248,2.91,2.91,0,0,0-1.421-.348,2.367,2.367,0,0,0-.976.2,2.322,2.322,0,0,0-.8.6,2.825,2.825,0,0,0-.546.983,4.117,4.117,0,0,0-.2,1.311,3.692,3.692,0,0,0,.6,2.265,2.089,2.089,0,0,0,.822.687,2.513,2.513,0,0,0,2.689-.292,2.013,2.013,0,0,0,.67-.871,3.365,3.365,0,0,0,.182-1.173Z" transform="translate(385.794 317.638)" fill="#fff"/>
    <path id="Caminho_418" data-name="Caminho 418" d="M391.585,178.429l2.861-7.648h1.191l2.754,7.648h-1.137l-.745-2.223h-3.074l-.8,2.223Zm2.18-3.137h2.359l-1.137-3.384Z" transform="translate(349.689 317.185)" fill="#fff"/>
    <path id="Caminho_419" data-name="Caminho 419" d="M448.853,178.428h-1.021V172l-2.137,6.425h-1.023l-2.179-6.4v6.4h-.979V170.78h1.478l2.2,6.49,2.181-6.49h1.478Z" transform="translate(314.076 317.185)" fill="#fff"/>
    <path id="Caminho_420" data-name="Caminho 420" d="M493.237,178.429l2.861-7.648h1.191l2.755,7.648h-1.137l-.745-2.223h-3.074l-.8,2.223Zm2.18-3.137h2.359l-1.137-3.384Z" transform="translate(277.182 317.185)" fill="#fff"/>
    <path id="Caminho_421" data-name="Caminho 421" d="M548.176,172.571h-.958a1.516,1.516,0,0,0-.31-.9,1.577,1.577,0,0,0-.7-.5,2.649,2.649,0,0,0-.9-.152,2.5,2.5,0,0,0-1.21.29,1.1,1.1,0,0,0-.535,1.061q0,.756.914.948,1.511.353,2.181.5a2.153,2.153,0,0,1,1.274,3.425,2.434,2.434,0,0,1-1.126.733,4.645,4.645,0,0,1-1.416.216,3.474,3.474,0,0,1-2.268-.663,2.462,2.462,0,0,1-.8-2.018h.956a1.61,1.61,0,0,0,1.1,1.626,3.007,3.007,0,0,0,1.018.171,3.929,3.929,0,0,0,.9-.106,1.712,1.712,0,0,0,.77-.395,1.009,1.009,0,0,0,.318-.787,1.252,1.252,0,0,0-.143-.644,1.048,1.048,0,0,0-.483-.395,5.691,5.691,0,0,0-.989-.311q-.6-.13-1.139-.251a5.276,5.276,0,0,1-1-.331,1.931,1.931,0,0,1-.764-.6,1.607,1.607,0,0,1-.3-1,2.425,2.425,0,0,1,.282-1.151,2.1,2.1,0,0,1,.876-.861,3.039,3.039,0,0,1,1.48-.327,3.611,3.611,0,0,1,1.867.4,2,2,0,0,1,.866.923,3.475,3.475,0,0,1,.245,1.1" transform="translate(242.176 317.638)" fill="#fff"/>
    <path id="Caminho_422" data-name="Caminho 422" d="M595.958,172.571H595a1.516,1.516,0,0,0-.31-.9,1.577,1.577,0,0,0-.7-.5,2.648,2.648,0,0,0-.9-.152,2.5,2.5,0,0,0-1.21.29,1.1,1.1,0,0,0-.535,1.061q0,.756.914.948,1.511.353,2.181.5a2.153,2.153,0,0,1,1.274,3.425,2.434,2.434,0,0,1-1.126.733,4.645,4.645,0,0,1-1.416.216,3.474,3.474,0,0,1-2.268-.663,2.462,2.462,0,0,1-.8-2.018h.956a1.61,1.61,0,0,0,1.1,1.626,3.007,3.007,0,0,0,1.018.171,3.928,3.928,0,0,0,.9-.106,1.712,1.712,0,0,0,.77-.395,1.009,1.009,0,0,0,.318-.787,1.252,1.252,0,0,0-.143-.644,1.048,1.048,0,0,0-.483-.395,5.691,5.691,0,0,0-.989-.311q-.6-.13-1.139-.251a5.276,5.276,0,0,1-1-.331,1.931,1.931,0,0,1-.764-.6,1.607,1.607,0,0,1-.3-1,2.425,2.425,0,0,1,.282-1.151,2.1,2.1,0,0,1,.876-.861,3.039,3.039,0,0,1,1.48-.327,3.611,3.611,0,0,1,1.867.4,2,2,0,0,1,.866.923,3.475,3.475,0,0,1,.245,1.1" transform="translate(208.094 317.638)" fill="#fff"/>
    <path id="Caminho_423" data-name="Caminho 423" d="M636.586,178.429l2.861-7.648h1.191l2.755,7.648h-1.137l-.745-2.223h-3.074l-.8,2.223Zm2.18-3.137h2.359l-1.137-3.384Z" transform="translate(174.934 317.185)" fill="#fff"/>
    <path id="Caminho_424" data-name="Caminho 424" d="M691.524,172.571h-.958a1.516,1.516,0,0,0-.31-.9,1.578,1.578,0,0,0-.705-.5,2.648,2.648,0,0,0-.9-.152,2.5,2.5,0,0,0-1.21.29,1.1,1.1,0,0,0-.535,1.061q0,.756.914.948,1.511.353,2.181.5a2.153,2.153,0,0,1,1.274,3.425,2.434,2.434,0,0,1-1.126.733,4.645,4.645,0,0,1-1.416.216,3.475,3.475,0,0,1-2.268-.663,2.462,2.462,0,0,1-.8-2.018h.956a1.61,1.61,0,0,0,1.1,1.626,3.006,3.006,0,0,0,1.018.171,3.928,3.928,0,0,0,.9-.106,1.711,1.711,0,0,0,.77-.395,1.009,1.009,0,0,0,.318-.787,1.251,1.251,0,0,0-.143-.644,1.048,1.048,0,0,0-.483-.395,5.691,5.691,0,0,0-.99-.311q-.6-.13-1.139-.251a5.281,5.281,0,0,1-1-.331,1.932,1.932,0,0,1-.763-.6,1.607,1.607,0,0,1-.3-1,2.425,2.425,0,0,1,.282-1.151,2.1,2.1,0,0,1,.876-.861,3.038,3.038,0,0,1,1.48-.327,3.611,3.611,0,0,1,1.867.4,2,2,0,0,1,.866.923,3.475,3.475,0,0,1,.245,1.1" transform="translate(139.928 317.638)" fill="#fff"/>
    <rect id="Retângulo_193" data-name="Retângulo 193" width="202.652" height="61.265" transform="translate(629 439)" fill="none"/>
  </g>
</svg>
