<?xml version="1.0" encoding="utf-8"?>
<!-- Generator: Adobe Illustrator 24.0.3, SVG Export Plug-In . SVG Version: 6.00 Build 0)  -->
<svg version="1.1" id="Camada_1" xmlns="http://www.w3.org/2000/svg" xmlns:xlink="http://www.w3.org/1999/xlink" x="0px" y="0px"
	 viewBox="0 0 582.72 276.54" style="enable-background:new 0 0 582.72 276.54;" xml:space="preserve">
<style type="text/css">
	.st0{fill-rule:evenodd;clip-rule:evenodd;fill:#005C38;}
	.st1{fill:#005C38;}
</style>
<polygon class="st0" points="178.77,24.2 219.89,24.2 215.29,55.55 174.16,55.55 "/>
<polygon class="st0" points="515.83,217.85 556.95,217.85 552.35,249.19 511.22,249.19 "/>
<polygon class="st1" points="149.61,78.03 144.86,110.25 75.36,173.38 135.55,173.38 131.27,202.42 23.93,202.42 28.88,168.86 
	96.63,106.79 42.56,106.79 46.8,78.03 "/>
<polygon class="st1" points="193.75,202.42 153.27,202.42 171.6,78.03 212.09,78.03 "/>
<polygon class="st1" points="264.75,202.42 224.27,202.42 250.46,24.76 290.95,24.76 "/>
<path class="st1" d="M344.21,146.21c-1.26,8.52-1.05,15.27,0.61,20.24c1.67,4.97,7.38,7.46,17.14,7.46c8.35,0,14.15-2.04,17.42-6.13
	c3.27-4.08,5.56-10.03,6.89-17.84c0.21-1.42,0.42-2.88,0.64-4.39c0.22-1.51,0.53-2.98,0.92-4.4c0.21-1.42,0.42-2.88,0.65-4.4
	c0.22-1.51,0.44-2.97,0.64-4.39c1.28-8.7,0.98-15.05-0.92-19.04c-1.9-3.99-7.47-5.99-16.7-5.99c-10.12,0-16.62,2.57-19.52,7.72
	c-2.89,5.15-5.02,12.34-6.37,21.58l-0.51,3.46L344.21,146.21z M305.3,133.69c3.27-22.2,9.69-37.16,19.27-44.88
	c9.57-7.72,25.37-11.59,47.39-11.59c22.73,0,38.92,3.11,48.57,9.32c9.65,6.22,12.6,22.02,8.86,47.41
	c-3.5,23.79-8.8,41.37-15.9,52.74c-7.09,11.36-24.75,17.04-52.99,17.04c-22.02,0-37.97-3.19-47.86-9.59
	c-9.89-6.39-13.01-21.93-9.38-46.61L305.3,133.69z"/>
<path class="st1" d="M500.11,78.03l-3.24,18.38h1.87c4.16-6.57,8.78-11.41,13.86-14.52c5.07-3.11,11.43-4.66,19.06-4.66
	c15.27,0,23.66,4.48,25.18,13.45c1.52,8.97,1.63,19.04,0.34,30.23c-0.08,0.53-0.15,1.02-0.22,1.47c-0.07,0.44-0.14,0.93-0.22,1.46
	c-0.03,1.42-0.16,2.88-0.38,4.39c-0.22,1.51-0.35,2.98-0.38,4.4h-37.02c0.23-0.36,0.38-0.8,0.46-1.33c0.08-0.53,0.16-1.07,0.24-1.6
	c0.1-0.71,0.2-1.38,0.29-2c0.1-0.62,0.19-1.29,0.3-2c0.05-0.36,0.11-0.75,0.18-1.2c0.07-0.44,0.14-0.93,0.22-1.47
	c0.37-3.73,0.12-7.15-0.75-10.26c-0.87-3.11-3.71-4.66-8.5-4.66c-4.97,0-8.68,1.69-11.13,5.06c-2.45,3.37-4.24,7.1-5.38,11.19
	c-0.16,1.07-0.36,2.18-0.62,3.33c-0.26,1.15-0.47,2.26-0.62,3.33l-10.52,71.38h-40.49l18.34-124.39H500.11z"/>
<path class="st1" d="M269.29,240.38c-0.03,0.02-0.05,0.04-0.06,0.04c-0.01,0-0.03,0-0.05,0c-0.17,0.05-0.34,0.09-0.52,0.12
	c-0.18,0.03-0.36,0.07-0.56,0.12c-0.19,0.05-0.39,0.09-0.59,0.12c-0.21,0.04-0.41,0.08-0.63,0.13c-0.21,0.02-0.42,0.05-0.64,0.09
	c-0.21,0.03-0.43,0.06-0.64,0.09c-0.42,0.05-0.81,0.11-1.15,0.18c-0.34,0.07-0.66,0.15-0.95,0.24c-0.29,0.1-0.55,0.19-0.79,0.28
	c-0.23,0.09-0.44,0.2-0.61,0.31c-0.18,0.11-0.34,0.25-0.47,0.38c-0.13,0.14-0.25,0.3-0.34,0.48c-0.11,0.17-0.2,0.34-0.26,0.54
	c-0.06,0.19-0.11,0.41-0.14,0.64c-0.03,0.23-0.04,0.44-0.03,0.63c0.01,0.18,0.05,0.37,0.12,0.55c0.05,0.17,0.12,0.32,0.23,0.49
	c0.1,0.16,0.23,0.3,0.38,0.42c0.15,0.14,0.3,0.25,0.48,0.34c0.17,0.1,0.37,0.18,0.59,0.24c0.11,0.02,0.24,0.05,0.37,0.07
	c0.14,0.02,0.27,0.05,0.41,0.07c0.05,0,0.09,0,0.14,0c0.05,0,0.11-0.01,0.18-0.04c0.05,0,0.09-0.01,0.14-0.02
	c0.05-0.01,0.09-0.02,0.14-0.02c0.22-0.05,0.43-0.09,0.63-0.14c0.2-0.05,0.4-0.1,0.59-0.18c0.2-0.07,0.38-0.15,0.56-0.24
	c0.17-0.09,0.35-0.19,0.52-0.28c0.18-0.11,0.34-0.23,0.5-0.35c0.16-0.11,0.31-0.24,0.47-0.38l0.08-0.07l0.04-0.03l0.08-0.07
	c0.13-0.11,0.25-0.24,0.34-0.36c0.1-0.13,0.19-0.26,0.28-0.4c0.09-0.14,0.18-0.28,0.27-0.42c0.09-0.14,0.17-0.29,0.23-0.45
	c0.03-0.07,0.06-0.15,0.09-0.23c0.02-0.08,0.05-0.17,0.09-0.26c0.01-0.09,0.03-0.19,0.06-0.29c0.03-0.11,0.06-0.2,0.09-0.3
	c0.05-0.21,0.1-0.43,0.14-0.66c0.05-0.23,0.09-0.48,0.12-0.76L269.29,240.38z M268.71,247.69c-0.02,0-0.05,0.01-0.07,0.02
	c-0.03,0.01-0.05,0.03-0.08,0.05c-0.03,0.02-0.05,0.04-0.06,0.05c-0.01,0.01-0.03,0.02-0.05,0.02c-0.1,0.07-0.21,0.14-0.32,0.2
	c-0.11,0.07-0.23,0.13-0.35,0.18c-0.1,0.07-0.21,0.13-0.32,0.17c-0.11,0.05-0.22,0.1-0.31,0.14c-0.1,0.05-0.21,0.09-0.31,0.12
	c-0.11,0.03-0.23,0.07-0.35,0.12c-0.1,0.02-0.2,0.05-0.3,0.07c-0.11,0.02-0.22,0.03-0.34,0.03c-0.21,0.05-0.44,0.09-0.66,0.14
	c-0.23,0.05-0.46,0.08-0.69,0.1c-0.24,0.05-0.47,0.07-0.69,0.09c-0.22,0.01-0.45,0.01-0.68,0.01l-1.39,0.04
	c-0.46-0.02-0.89-0.07-1.3-0.13c-0.41-0.06-0.8-0.14-1.18-0.26c-0.36-0.07-0.69-0.19-1-0.35c-0.3-0.16-0.58-0.36-0.82-0.59
	c-0.25-0.23-0.45-0.48-0.63-0.75c-0.17-0.26-0.31-0.55-0.41-0.85c-0.09-0.32-0.15-0.66-0.18-1.01c-0.02-0.35-0.01-0.72,0.05-1.1
	c0.04-0.32,0.11-0.63,0.19-0.9c0.09-0.28,0.19-0.55,0.32-0.83c0.13-0.28,0.28-0.53,0.45-0.78c0.18-0.25,0.37-0.48,0.59-0.71
	c0.22-0.23,0.45-0.44,0.71-0.63c0.26-0.18,0.52-0.35,0.8-0.52c0.28-0.16,0.58-0.31,0.91-0.43c0.33-0.13,0.68-0.24,1.04-0.33h0.07
	l0.07-0.03h0.03l0.07-0.03h0.07l0.07-0.03h0.03l0.07-0.03h0.1l0.11-0.03h0.07l0.11-0.04l0.21-0.03c0.05,0,0.1-0.01,0.14-0.02
	c0.05-0.01,0.1-0.03,0.15-0.05c0.05,0,0.09,0,0.12,0s0.07,0,0.12,0c0.05,0,0.1-0.01,0.16-0.02c0.06-0.01,0.13-0.03,0.2-0.05
	c0.02,0,0.05,0,0.07,0c0.03,0,0.06-0.01,0.11-0.03c0.03,0,0.05,0,0.09,0c0.03,0,0.06,0,0.09,0c0.07,0,0.14-0.01,0.21-0.02
	c0.07-0.01,0.15-0.03,0.25-0.05c0.14-0.02,0.28-0.04,0.42-0.05c0.14-0.01,0.28-0.03,0.42-0.05c0.07,0,0.14-0.01,0.21-0.02
	c0.07-0.01,0.14-0.03,0.22-0.05c0.05,0,0.11-0.01,0.18-0.02c0.07-0.01,0.14-0.02,0.21-0.02c0.12-0.02,0.25-0.05,0.38-0.07
	c0.13-0.02,0.26-0.05,0.37-0.07c0.12-0.02,0.24-0.05,0.38-0.09c0.13-0.03,0.26-0.07,0.38-0.09c0.12-0.02,0.25-0.05,0.38-0.07
	c0.13-0.02,0.24-0.05,0.34-0.07c0.12-0.02,0.23-0.05,0.34-0.07c0.11-0.02,0.21-0.05,0.31-0.07c0.09-0.02,0.19-0.05,0.27-0.07
	c0.09-0.02,0.18-0.05,0.27-0.07c0.09-0.02,0.19-0.04,0.27-0.05c0.08-0.01,0.17-0.03,0.27-0.05l0.01-0.1l0.05-0.14l0.01-0.07
	l0.01-0.1l0.02-0.14l0.02-0.14l0.01-0.03l0.01-0.07l0-0.03c0.04-0.32,0.06-0.63,0.05-0.9c-0.01-0.28-0.05-0.54-0.11-0.76
	c-0.06-0.23-0.14-0.44-0.23-0.63c-0.09-0.18-0.22-0.35-0.38-0.48c-0.14-0.14-0.32-0.26-0.54-0.37c-0.22-0.11-0.46-0.19-0.73-0.26
	c-0.18-0.05-0.38-0.09-0.59-0.12c-0.21-0.03-0.45-0.06-0.7-0.09c-0.19,0.03-0.38,0.05-0.56,0.07c-0.19,0.02-0.38,0.06-0.57,0.1
	c-0.29,0.07-0.54,0.15-0.76,0.25c-0.22,0.09-0.43,0.19-0.63,0.31c-0.18,0.12-0.36,0.26-0.54,0.44c-0.19,0.17-0.35,0.36-0.5,0.57
	c-0.15,0.23-0.29,0.47-0.43,0.73c-0.14,0.26-0.26,0.53-0.37,0.83h-1.39l-2.94-0.31c0.01-0.05,0.01-0.09,0.02-0.14
	c0.01-0.05,0.03-0.1,0.06-0.18c0.01-0.05,0.02-0.09,0.04-0.14c0.02-0.05,0.03-0.09,0.03-0.14c0.04-0.1,0.07-0.18,0.09-0.26
	c0.02-0.08,0.05-0.15,0.08-0.23c0.01-0.05,0.02-0.08,0.03-0.1c0.01-0.02,0.04-0.06,0.07-0.1c0.01-0.02,0.01-0.05,0.03-0.09
	c0.01-0.03,0.04-0.07,0.06-0.09c0.03-0.05,0.05-0.09,0.07-0.11c0.02-0.02,0.04-0.06,0.07-0.1c0.03-0.02,0.05-0.05,0.06-0.09
	c0.02-0.03,0.04-0.06,0.06-0.09l0.09-0.11l0.09-0.1l0.09-0.14l0.09-0.14c0.19-0.25,0.4-0.5,0.62-0.73c0.22-0.23,0.46-0.45,0.71-0.65
	c0.26-0.19,0.53-0.36,0.82-0.54c0.29-0.17,0.59-0.33,0.91-0.47c0.32-0.14,0.66-0.26,1.01-0.36c0.35-0.1,0.71-0.19,1.09-0.26
	c0.4-0.07,0.82-0.12,1.24-0.15c0.42-0.03,0.85-0.05,1.29-0.05h1.39c0.44,0,0.85,0.02,1.25,0.05c0.39,0.03,0.76,0.09,1.12,0.15
	c0.36,0.07,0.7,0.15,1.01,0.25c0.31,0.09,0.6,0.19,0.86,0.31c0.26,0.14,0.5,0.28,0.7,0.45c0.21,0.16,0.4,0.34,0.55,0.52
	c0.16,0.19,0.3,0.38,0.42,0.59c0.12,0.21,0.21,0.44,0.27,0.7l-0.02,0.14l0.05,0.14l0.01,0.14l0.05,0.14
	c0.01,0.09,0.01,0.18,0.02,0.26c0,0.08,0,0.18,0.01,0.3c-0.01,0.05-0.01,0.1-0.02,0.15c-0.01,0.06-0.01,0.11,0.01,0.15
	c-0.01,0.07-0.01,0.14-0.01,0.19c0,0.06,0,0.11-0.01,0.15c-0.01,0.07-0.02,0.14-0.03,0.19c-0.01,0.06-0.01,0.12,0.01,0.19
	c-0.01,0.07-0.02,0.15-0.03,0.23c-0.01,0.08-0.02,0.15-0.03,0.23c-0.01,0.09-0.02,0.18-0.03,0.26c-0.01,0.08-0.01,0.17,0,0.26
	c-0.01,0.09-0.03,0.18-0.04,0.28c-0.01,0.09-0.03,0.19-0.04,0.31l-0.56,4.13c-0.06,0.44-0.11,0.85-0.16,1.23
	c-0.05,0.38-0.1,0.73-0.15,1.06c-0.04,0.3-0.08,0.58-0.11,0.81c-0.03,0.25-0.05,0.46-0.05,0.64c-0.02,0.16-0.05,0.32-0.07,0.48
	c-0.02,0.16-0.03,0.31-0.03,0.45c0.01,0.14,0.01,0.27,0.02,0.38c0.01,0.12,0.01,0.23,0.02,0.35l-0.01,0.07l-0.01,0.07l0,0.03
	l-0.01,0.07l0.06,0.07c-0.01,0.05-0.01,0.09,0,0.14c0.01,0.05,0.02,0.1,0.03,0.14l0.04,0.24l0.04,0.21l0.07,0.21l0.04,0.21
	l0.04,0.21l0.08,0.21l0.11,0.18h-1.39H269l-0.06-0.03l-0.06-0.11l-0.05-0.14l0.02-0.14c-0.02-0.05-0.03-0.1-0.05-0.15
	c-0.02-0.06-0.03-0.12-0.05-0.19c-0.01-0.07-0.02-0.14-0.02-0.21C268.73,247.83,268.72,247.76,268.71,247.69L268.71,247.69z
	 M250.12,227.59L250.12,227.59l0.48-3.5h1.39h3.06l-0.48,3.5h-1.39H250.12z M247.23,248.87L247.23,248.87l2.44-17.95h1.39h3.06
	l-2.44,17.95h-1.39H247.23z M230.84,239.76L230.84,239.76l-0.01,0.07c-0.07,0.51-0.11,1-0.11,1.47c-0.01,0.47,0.01,0.9,0.05,1.3
	c0.06,0.39,0.15,0.76,0.25,1.11c0.1,0.35,0.25,0.67,0.44,0.97c0.17,0.3,0.37,0.56,0.61,0.78c0.23,0.22,0.49,0.4,0.78,0.54
	c0.2,0.09,0.41,0.18,0.65,0.25c0.23,0.07,0.46,0.13,0.69,0.17c0.12-0.02,0.24-0.05,0.36-0.09c0.12-0.03,0.24-0.06,0.36-0.09
	c0.05-0.02,0.1-0.04,0.17-0.05c0.06-0.01,0.13-0.03,0.2-0.06c0.05-0.02,0.1-0.05,0.17-0.07c0.06-0.02,0.11-0.05,0.16-0.07
	c0.05-0.02,0.1-0.05,0.15-0.09c0.05-0.03,0.11-0.06,0.18-0.09c0.05-0.05,0.1-0.09,0.15-0.13c0.05-0.03,0.1-0.06,0.15-0.09
	c0.23-0.14,0.44-0.29,0.63-0.45c0.2-0.16,0.39-0.34,0.57-0.52c0.17-0.19,0.32-0.38,0.46-0.59c0.15-0.21,0.28-0.43,0.4-0.66
	c0.13-0.23,0.24-0.48,0.35-0.75c0.1-0.26,0.19-0.55,0.25-0.85c0.09-0.32,0.17-0.65,0.24-0.98c0.07-0.34,0.13-0.69,0.18-1.06
	c0.07-0.51,0.1-0.99,0.11-1.44c0-0.45-0.03-0.88-0.09-1.3c-0.03-0.42-0.12-0.8-0.25-1.14c-0.13-0.35-0.28-0.67-0.48-0.97
	c-0.19-0.3-0.4-0.56-0.62-0.78c-0.22-0.22-0.49-0.41-0.79-0.57c-0.19-0.1-0.4-0.18-0.61-0.26c-0.21-0.08-0.44-0.13-0.69-0.16
	c-0.24,0.03-0.47,0.07-0.7,0.14c-0.23,0.07-0.46,0.16-0.68,0.28c-0.32,0.16-0.63,0.35-0.91,0.57c-0.29,0.22-0.55,0.48-0.8,0.78
	c-0.27,0.3-0.51,0.63-0.73,0.99c-0.21,0.36-0.4,0.74-0.58,1.16c-0.15,0.42-0.28,0.85-0.4,1.3C231,238.8,230.91,239.27,230.84,239.76
	z M226.86,250.36L226.86,250.36l2.93,0.42c0.01,0.23,0.04,0.45,0.07,0.65c0.03,0.21,0.08,0.39,0.15,0.56
	c0.09,0.18,0.2,0.35,0.31,0.5c0.12,0.15,0.25,0.28,0.4,0.4c0.15,0.11,0.32,0.22,0.52,0.3c0.2,0.08,0.41,0.15,0.63,0.23
	c0.13,0.05,0.28,0.07,0.44,0.09c0.16,0.01,0.32,0.03,0.48,0.05c0.07,0,0.13-0.01,0.19-0.02c0.06-0.01,0.13-0.02,0.19-0.02
	c0.07-0.02,0.14-0.04,0.2-0.05c0.06-0.01,0.13-0.02,0.19-0.02c0.21-0.02,0.43-0.07,0.64-0.14c0.22-0.07,0.43-0.15,0.62-0.24
	c0.2-0.1,0.39-0.19,0.58-0.28c0.19-0.09,0.36-0.2,0.51-0.31c0.15-0.11,0.29-0.25,0.42-0.38c0.13-0.14,0.24-0.28,0.35-0.42h0.03
	l0.01-0.03l0-0.03h0.04l0-0.03c0.07-0.14,0.13-0.27,0.21-0.4c0.08-0.13,0.14-0.26,0.21-0.4c0.07-0.14,0.12-0.28,0.18-0.42
	c0.05-0.14,0.1-0.27,0.14-0.42c0.05-0.16,0.09-0.32,0.12-0.5c0.03-0.17,0.08-0.36,0.13-0.57c0.04-0.14,0.08-0.3,0.11-0.47
	c0.04-0.17,0.07-0.38,0.1-0.6c-0.08,0.05-0.15,0.09-0.23,0.14c-0.08,0.05-0.15,0.09-0.23,0.14c-0.1,0.05-0.19,0.09-0.26,0.12
	c-0.07,0.03-0.15,0.07-0.22,0.12c-0.22,0.09-0.44,0.18-0.66,0.26c-0.22,0.08-0.45,0.14-0.69,0.19c-0.23,0.02-0.47,0.05-0.71,0.07
	c-0.23,0.02-0.48,0.03-0.73,0.03h-1.39c-0.58,0-1.13-0.05-1.65-0.14c-0.52-0.09-1-0.24-1.43-0.45c-0.44-0.21-0.84-0.47-1.21-0.78
	c-0.38-0.31-0.71-0.68-1-1.09c-0.32-0.42-0.57-0.86-0.77-1.33c-0.21-0.48-0.36-0.99-0.47-1.54c-0.09-0.56-0.13-1.14-0.15-1.75
	c-0.01-0.61,0.03-1.25,0.13-1.92c0.09-0.7,0.23-1.35,0.41-1.98c0.18-0.63,0.38-1.21,0.62-1.77c0.26-0.55,0.55-1.08,0.87-1.58
	c0.32-0.5,0.7-0.96,1.13-1.4c0.4-0.42,0.84-0.78,1.3-1.11c0.46-0.32,0.94-0.59,1.43-0.8c0.49-0.21,1.02-0.37,1.58-0.49
	c0.56-0.11,1.13-0.17,1.71-0.17h1.39c0.25,0,0.52,0.02,0.78,0.05c0.26,0.03,0.5,0.07,0.73,0.12c0.25,0.07,0.47,0.14,0.68,0.21
	c0.21,0.07,0.43,0.16,0.64,0.28c0.17,0.09,0.33,0.19,0.46,0.31c0.13,0.12,0.27,0.23,0.42,0.35l0.13-0.97h1.39h2.81l-2.12,15.59
	c-0.07,0.51-0.14,0.98-0.23,1.42c-0.08,0.44-0.17,0.83-0.26,1.18c-0.08,0.39-0.17,0.76-0.29,1.09c-0.11,0.34-0.23,0.65-0.34,0.96
	c-0.13,0.27-0.27,0.55-0.41,0.81c-0.14,0.26-0.28,0.51-0.43,0.75c-0.17,0.23-0.35,0.45-0.53,0.66c-0.18,0.21-0.37,0.4-0.58,0.59
	c-0.21,0.18-0.43,0.35-0.66,0.48c-0.22,0.14-0.45,0.28-0.68,0.42c-0.23,0.14-0.47,0.27-0.71,0.38c-0.25,0.11-0.5,0.22-0.77,0.31
	c-0.27,0.09-0.55,0.18-0.83,0.25c-0.29,0.07-0.58,0.13-0.86,0.17c-0.31,0.05-0.61,0.08-0.92,0.1c-0.31,0.03-0.62,0.04-0.94,0.04
	l-1.39,0.03c-0.55-0.03-1.07-0.07-1.54-0.14c-0.48-0.07-0.93-0.16-1.35-0.27c-0.42-0.14-0.8-0.3-1.15-0.47
	c-0.35-0.17-0.67-0.39-0.96-0.64c-0.29-0.23-0.54-0.5-0.74-0.8c-0.2-0.3-0.36-0.62-0.48-0.94c-0.12-0.32-0.19-0.67-0.23-1.04
	c-0.03-0.37-0.02-0.76,0.04-1.18l0.01-0.03l0.01-0.07l0.01-0.1l0.01-0.11H226.86z M212.87,248.87L212.87,248.87l2.44-17.95h1.39
	h2.75l-0.11,0.76c0.05-0.05,0.1-0.09,0.14-0.13c0.04-0.03,0.09-0.07,0.14-0.12c0.03-0.02,0.07-0.06,0.12-0.1
	c0.05-0.05,0.1-0.08,0.15-0.1c0.13-0.07,0.25-0.14,0.36-0.21c0.11-0.07,0.22-0.13,0.32-0.18c0.12-0.05,0.24-0.09,0.35-0.12
	c0.11-0.03,0.22-0.06,0.34-0.09c0.12-0.02,0.24-0.04,0.37-0.05c0.13-0.01,0.26-0.02,0.4-0.02h1.39h0.14h0.14l0.1,0.03h0.14
	c0.02,0,0.05,0,0.07,0c0.02,0,0.05,0,0.07,0c0.02,0.02,0.04,0.03,0.07,0.03s0.05,0,0.07,0s0.05,0,0.07,0c0.02,0,0.05,0,0.07,0
	c0.02,0.02,0.04,0.03,0.07,0.03c0.03,0,0.05,0,0.07,0c0.09,0.02,0.17,0.04,0.25,0.05c0.08,0.01,0.16,0.04,0.25,0.09
	c0.05,0.02,0.09,0.04,0.13,0.06c0.05,0.01,0.09,0.02,0.14,0.02c0.02,0.02,0.05,0.04,0.1,0.05c0.05,0.01,0.09,0.03,0.13,0.05
	c0.04,0.02,0.09,0.05,0.13,0.07c0.05,0.02,0.09,0.03,0.14,0.03c0.02,0.02,0.05,0.05,0.09,0.07c0.04,0.02,0.09,0.05,0.13,0.07
	c0.07,0.05,0.13,0.09,0.21,0.14c0.08,0.05,0.16,0.09,0.24,0.14l-1.43,2.88h-1.39c-0.09-0.05-0.17-0.1-0.26-0.16
	c-0.09-0.06-0.17-0.1-0.26-0.12c-0.09-0.05-0.17-0.09-0.26-0.12c-0.09-0.03-0.18-0.06-0.27-0.09c-0.05,0-0.09-0.01-0.12-0.02
	c-0.03-0.01-0.07-0.03-0.11-0.05c-0.05,0-0.09-0.01-0.12-0.02c-0.03-0.01-0.07-0.02-0.12-0.02c-0.14,0.02-0.28,0.06-0.42,0.13
	c-0.14,0.06-0.26,0.12-0.39,0.19c-0.23,0.14-0.45,0.3-0.66,0.48c-0.21,0.19-0.4,0.4-0.58,0.66c-0.2,0.26-0.37,0.53-0.51,0.85
	c-0.15,0.31-0.28,0.64-0.4,0.99c-0.12,0.35-0.22,0.72-0.31,1.11c-0.09,0.39-0.17,0.82-0.23,1.28l-1.27,9.39h-1.39H212.87z
	 M197.15,238.17L197.15,238.17l8.64,0.07c0.01-0.09,0.03-0.18,0.04-0.26c0.01-0.08,0.02-0.17,0.03-0.26
	c0.01-0.05,0.01-0.09,0.02-0.12c0.01-0.03,0.01-0.06,0.01-0.09c-0.02-0.05-0.02-0.09-0.02-0.13c0.01-0.03,0.01-0.06,0.01-0.09
	l-0.05-0.17l0.02-0.18l-0.05-0.17l-0.01-0.18l-0.05-0.14l-0.05-0.17l-0.05-0.14l-0.01-0.17c-0.07-0.21-0.14-0.42-0.23-0.63
	c-0.09-0.2-0.19-0.39-0.31-0.55c-0.11-0.19-0.25-0.35-0.4-0.48c-0.15-0.14-0.32-0.28-0.52-0.42c-0.19-0.11-0.39-0.22-0.6-0.32
	c-0.2-0.11-0.42-0.19-0.64-0.26c-0.11-0.05-0.23-0.08-0.35-0.1c-0.13-0.02-0.26-0.05-0.39-0.07c-0.23,0.03-0.46,0.07-0.68,0.13
	c-0.22,0.06-0.42,0.13-0.62,0.22c-0.32,0.12-0.61,0.26-0.89,0.44c-0.28,0.17-0.55,0.38-0.81,0.6c-0.26,0.23-0.51,0.48-0.75,0.76
	c-0.23,0.28-0.43,0.58-0.59,0.91c-0.18,0.3-0.33,0.61-0.44,0.95C197.31,237.48,197.22,237.82,197.15,238.17z M206.48,243.12
	L206.48,243.12l3.1,0.45c-0.2,0.46-0.42,0.9-0.65,1.32c-0.23,0.42-0.5,0.8-0.8,1.14c-0.28,0.37-0.59,0.7-0.92,0.99
	c-0.33,0.28-0.67,0.56-1.03,0.82c-0.38,0.23-0.77,0.44-1.18,0.62c-0.41,0.19-0.83,0.33-1.26,0.42c-0.46,0.11-0.92,0.2-1.39,0.26
	c-0.47,0.06-0.96,0.09-1.47,0.09l-1.39,0.04c-0.67-0.02-1.29-0.09-1.87-0.19c-0.58-0.1-1.12-0.24-1.63-0.4
	c-0.49-0.18-0.93-0.43-1.34-0.73c-0.41-0.3-0.79-0.66-1.12-1.08c-0.32-0.39-0.59-0.83-0.83-1.32c-0.24-0.48-0.41-1.01-0.52-1.56
	c-0.11-0.56-0.17-1.15-0.17-1.8c-0.01-0.64,0.04-1.33,0.14-2.04c0.1-0.74,0.24-1.43,0.42-2.08c0.18-0.64,0.4-1.26,0.67-1.83
	c0.27-0.6,0.58-1.15,0.94-1.65c0.36-0.5,0.75-0.96,1.18-1.4c0.45-0.44,0.92-0.82,1.41-1.14c0.48-0.32,0.99-0.59,1.53-0.8
	c0.56-0.21,1.13-0.37,1.72-0.49c0.58-0.11,1.2-0.17,1.84-0.17h1.39c0.63,0,1.21,0.06,1.75,0.17c0.54,0.12,1.05,0.28,1.53,0.49
	c0.46,0.21,0.88,0.47,1.28,0.8c0.4,0.32,0.75,0.69,1.07,1.11c0.31,0.44,0.57,0.91,0.78,1.4c0.21,0.5,0.37,1.03,0.48,1.58
	c0.11,0.56,0.17,1.15,0.18,1.79c0.01,0.64-0.04,1.31-0.14,2.03l-0.02,0.18l-0.02,0.17l-0.02,0.1l-0.01,0.11l-0.02,0.14l-0.01,0.07
	l-13.46,0.07c-0.04,0.49-0.06,0.94-0.05,1.35c0.01,0.42,0.06,0.82,0.15,1.21c0.09,0.37,0.21,0.72,0.36,1.04
	c0.15,0.32,0.33,0.61,0.52,0.86c0.22,0.28,0.45,0.52,0.7,0.73c0.25,0.21,0.52,0.38,0.8,0.52c0.2,0.1,0.41,0.17,0.65,0.23
	c0.24,0.06,0.48,0.1,0.73,0.12c0.19-0.02,0.36-0.05,0.52-0.09c0.15-0.03,0.32-0.06,0.48-0.09c0.26-0.07,0.52-0.17,0.75-0.28
	c0.24-0.11,0.47-0.26,0.7-0.42c0.21-0.14,0.41-0.31,0.61-0.5c0.2-0.2,0.4-0.41,0.59-0.64c0.17-0.23,0.34-0.48,0.5-0.76
	c0.16-0.28,0.32-0.59,0.46-0.93H206.48z M171.01,248.87L171.01,248.87l2.44-17.95h1.39h2.74l-0.15,1.11
	c0.18-0.12,0.36-0.24,0.55-0.36c0.19-0.13,0.39-0.24,0.58-0.33c0.27-0.12,0.54-0.22,0.8-0.31c0.27-0.09,0.55-0.18,0.83-0.25
	c0.29-0.07,0.58-0.12,0.89-0.15c0.31-0.03,0.61-0.05,0.91-0.05h1.39c0.3,0,0.59,0.02,0.86,0.05c0.27,0.03,0.55,0.07,0.82,0.12
	c0.25,0.07,0.5,0.15,0.75,0.25c0.25,0.09,0.49,0.19,0.7,0.31c0.24,0.11,0.45,0.24,0.64,0.38c0.19,0.14,0.35,0.3,0.49,0.48
	c0.16,0.16,0.3,0.34,0.42,0.52c0.11,0.19,0.21,0.37,0.3,0.56l0.02,0.1l0.06,0.1l-0.01,0.11l0.06,0.07l0.02,0.1l0.06,0.07l-0.01,0.1
	l0.06,0.07c0.03,0.09,0.06,0.2,0.08,0.33c0.02,0.13,0.03,0.25,0.03,0.36c0.03,0.11,0.05,0.23,0.04,0.36c-0.01,0.13-0.01,0.26,0,0.4
	c-0.01,0.07-0.02,0.14-0.03,0.22c-0.01,0.08-0.01,0.15,0.01,0.23c-0.01,0.09-0.03,0.18-0.04,0.27c-0.01,0.1-0.03,0.2-0.04,0.31
	c-0.01,0.09-0.03,0.2-0.04,0.31c-0.01,0.11-0.02,0.23-0.01,0.35c-0.01,0.11-0.03,0.23-0.05,0.35c-0.02,0.11-0.03,0.24-0.05,0.38
	l-1.5,11.02h-1.39h-3.06l1.47-10.85c0.01-0.09,0.03-0.18,0.04-0.28c0.01-0.09,0.02-0.18,0.04-0.27c-0.01-0.09-0.01-0.18,0-0.26
	c0.01-0.08,0.02-0.15,0.03-0.22c0.02-0.17,0.03-0.31,0.04-0.46c0.01-0.14,0.01-0.25-0.01-0.34c0.01-0.05,0.01-0.1,0-0.14
	c-0.01-0.05-0.02-0.1-0.03-0.17c0.01-0.05,0.01-0.1,0-0.14c-0.01-0.05-0.02-0.09-0.03-0.14c-0.01-0.05-0.03-0.09-0.03-0.14
	c-0.01-0.05-0.01-0.1,0-0.14c-0.02-0.05-0.03-0.09-0.03-0.14s-0.02-0.09-0.03-0.14l-0.06-0.1l-0.02-0.1l-0.06-0.1l-0.06-0.11
	c-0.05-0.11-0.12-0.21-0.2-0.29c-0.08-0.09-0.17-0.17-0.28-0.26c-0.08-0.09-0.18-0.18-0.3-0.26c-0.12-0.08-0.24-0.15-0.37-0.22
	c-0.13-0.05-0.27-0.1-0.41-0.16c-0.14-0.06-0.29-0.1-0.45-0.12c-0.02,0-0.05-0.01-0.07-0.02c-0.02-0.01-0.03-0.02-0.03-0.02
	c-0.02,0-0.05,0-0.07,0c-0.02,0-0.05,0-0.07,0c-0.05,0-0.09,0.01-0.14,0.02c-0.05,0.01-0.09,0.02-0.14,0.02
	c-0.03,0-0.05,0.01-0.07,0.02c-0.03,0.01-0.04,0.02-0.04,0.02c-0.05,0-0.08,0.01-0.1,0.02c-0.03,0.01-0.06,0.02-0.11,0.02
	c-0.22,0.07-0.43,0.14-0.64,0.21c-0.21,0.07-0.41,0.16-0.61,0.27c-0.2,0.1-0.39,0.2-0.57,0.33c-0.18,0.13-0.35,0.26-0.5,0.4
	c-0.16,0.14-0.3,0.28-0.42,0.43c-0.13,0.15-0.25,0.31-0.36,0.47c-0.09,0.11-0.16,0.23-0.22,0.36c-0.07,0.13-0.13,0.25-0.19,0.36
	c-0.03,0.07-0.06,0.14-0.1,0.21c-0.03,0.07-0.06,0.13-0.09,0.17c-0.01,0.07-0.03,0.14-0.06,0.21c-0.03,0.07-0.05,0.14-0.06,0.21
	c-0.04,0.14-0.09,0.28-0.13,0.43c-0.04,0.15-0.08,0.32-0.1,0.5c-0.05,0.16-0.08,0.34-0.11,0.53c-0.03,0.2-0.05,0.39-0.08,0.58
	l-1.33,9.81h-1.39H171.01z M146.53,248.87L146.53,248.87l3.37-24.78h1.39h17.96l-0.4,2.91h-14.66l-1.03,7.59h13.72l-0.39,2.91
	h-13.72l-1.15,8.45h15.25l-0.39,2.91h-1.39H146.53z"/>
<path class="st1" d="M452.25,239.9L452.25,239.9l-0.01,0.07c-0.07,0.54-0.11,1.04-0.12,1.53c-0.01,0.49,0.02,0.94,0.08,1.35
	c0.06,0.44,0.15,0.84,0.29,1.2c0.14,0.36,0.3,0.69,0.49,0.99c0.19,0.3,0.41,0.57,0.65,0.82c0.25,0.24,0.52,0.43,0.83,0.57
	c0.22,0.09,0.44,0.18,0.68,0.25c0.23,0.07,0.49,0.13,0.76,0.17c0.28-0.05,0.56-0.1,0.82-0.17c0.26-0.07,0.52-0.15,0.76-0.25
	c0.34-0.14,0.67-0.33,0.98-0.57c0.31-0.24,0.6-0.52,0.88-0.82c0.28-0.32,0.52-0.67,0.75-1.02c0.22-0.36,0.42-0.76,0.6-1.19
	c0.17-0.42,0.33-0.88,0.47-1.37c0.14-0.49,0.24-1.02,0.32-1.57c0.07-0.53,0.1-1.03,0.1-1.47c-0.01-0.45-0.04-0.88-0.1-1.3
	s-0.15-0.8-0.28-1.16c-0.12-0.36-0.28-0.69-0.47-0.99c-0.19-0.3-0.41-0.56-0.66-0.78c-0.25-0.22-0.52-0.41-0.83-0.57
	c-0.22-0.12-0.45-0.22-0.69-0.3c-0.25-0.08-0.49-0.13-0.74-0.16c-0.28,0.03-0.56,0.08-0.82,0.16c-0.26,0.08-0.52,0.18-0.77,0.3
	c-0.35,0.16-0.67,0.35-0.98,0.57c-0.31,0.22-0.6,0.48-0.87,0.78c-0.27,0.3-0.53,0.64-0.76,1.01c-0.24,0.37-0.44,0.76-0.62,1.18
	c-0.17,0.42-0.32,0.85-0.44,1.31C452.42,238.91,452.32,239.39,452.25,239.9 M447.73,239.96c0.07-0.48,0.15-0.94,0.24-1.38
	c0.09-0.44,0.21-0.87,0.33-1.29c0.13-0.42,0.27-0.81,0.44-1.18c0.16-0.37,0.35-0.72,0.56-1.04c0.21-0.32,0.43-0.64,0.67-0.94
	c0.24-0.3,0.49-0.59,0.76-0.87c0.26-0.26,0.55-0.49,0.86-0.73c0.31-0.23,0.63-0.45,0.96-0.66c0.2-0.11,0.39-0.21,0.58-0.3
	c0.18-0.08,0.38-0.17,0.57-0.26c0.2-0.09,0.4-0.18,0.59-0.25c0.19-0.07,0.4-0.13,0.62-0.17c0.19-0.05,0.39-0.1,0.61-0.14
	c0.22-0.05,0.43-0.08,0.64-0.1c0.22-0.05,0.43-0.07,0.64-0.09c0.21-0.01,0.43-0.02,0.67-0.02h1.39c0.65,0,1.26,0.05,1.82,0.15
	c0.56,0.1,1.09,0.26,1.57,0.47c0.48,0.21,0.92,0.47,1.33,0.78c0.41,0.31,0.77,0.68,1.09,1.09c0.33,0.42,0.61,0.87,0.82,1.36
	c0.21,0.48,0.37,1.01,0.48,1.56c0.11,0.55,0.17,1.14,0.19,1.76c0.02,0.63-0.02,1.29-0.11,1.98c-0.07,0.53-0.16,1.04-0.27,1.52
	c-0.11,0.48-0.23,0.93-0.36,1.35c-0.13,0.44-0.28,0.86-0.45,1.23c-0.17,0.38-0.34,0.73-0.52,1.06c-0.21,0.32-0.42,0.64-0.65,0.94
	c-0.23,0.3-0.49,0.59-0.78,0.86c-0.27,0.28-0.56,0.53-0.86,0.76c-0.31,0.23-0.64,0.44-0.99,0.63c-0.1,0.05-0.2,0.1-0.3,0.15
	c-0.1,0.06-0.19,0.11-0.26,0.15c-0.1,0.05-0.2,0.09-0.3,0.13c-0.1,0.03-0.19,0.07-0.29,0.12c-0.2,0.07-0.4,0.13-0.6,0.17
	c-0.2,0.05-0.4,0.09-0.59,0.11c-0.1,0.02-0.2,0.05-0.31,0.07c-0.11,0.02-0.22,0.05-0.34,0.07c-0.1,0.02-0.19,0.04-0.3,0.05
	c-0.1,0.01-0.21,0.03-0.3,0.05c-0.05,0-0.1,0-0.16,0c-0.06,0-0.11,0.01-0.16,0.03c-0.05,0-0.1,0-0.15,0c-0.06,0-0.11,0-0.16,0
	c-0.05,0-0.1,0-0.15,0c-0.06,0-0.11,0.01-0.17,0.03c-0.05,0-0.1,0-0.15,0c-0.06,0-0.11,0-0.16,0l-1.39,0.04
	c-0.46-0.02-0.9-0.07-1.34-0.13c-0.43-0.06-0.84-0.14-1.21-0.26c-0.41-0.07-0.79-0.19-1.15-0.36c-0.36-0.18-0.71-0.38-1.04-0.61
	c-0.34-0.23-0.64-0.48-0.89-0.76c-0.25-0.28-0.49-0.56-0.7-0.87c-0.19-0.32-0.35-0.67-0.5-1.02c-0.15-0.36-0.25-0.73-0.32-1.13
	c-0.03-0.14-0.05-0.29-0.08-0.45c-0.02-0.16-0.05-0.32-0.07-0.48c0-0.17-0.01-0.33-0.02-0.51c-0.01-0.17-0.01-0.35-0.01-0.54
	c0-0.18,0-0.36,0-0.54c0-0.18,0.01-0.35,0.04-0.54c0-0.18,0.02-0.37,0.04-0.55C447.68,240.33,447.7,240.15,447.73,239.96z
	 M444.61,246.17L444.61,246.17l0.05,2.7c-0.07,0-0.14,0.01-0.21,0.02c-0.07,0.01-0.14,0.02-0.21,0.02s-0.14,0.01-0.21,0.02
	c-0.07,0.01-0.13,0.03-0.18,0.05c-0.02,0-0.05,0-0.09,0s-0.08,0.01-0.13,0.03c-0.02,0-0.05,0-0.09,0c-0.04,0-0.08,0-0.12,0
	c-0.07,0-0.13,0.01-0.19,0.02c-0.06,0.01-0.11,0.03-0.17,0.05l-1.39,0.03h-0.21h-0.14h-0.1h-0.07h-0.11h-0.1
	c-0.25-0.02-0.5-0.05-0.74-0.07c-0.24-0.02-0.46-0.06-0.66-0.1c-0.21-0.02-0.4-0.06-0.58-0.1c-0.18-0.05-0.34-0.11-0.5-0.18
	c-0.15-0.07-0.29-0.15-0.42-0.26c-0.13-0.1-0.24-0.21-0.34-0.32c-0.1-0.12-0.19-0.25-0.26-0.4c-0.07-0.15-0.12-0.3-0.14-0.47
	l-0.06-0.1l0.01-0.1l-0.03-0.03l0.01-0.07h-0.03l0.01-0.07c-0.01-0.07-0.02-0.14-0.02-0.22c0-0.09-0.01-0.17-0.02-0.26
	c-0.01-0.09-0.02-0.19-0.01-0.3c0-0.1,0.01-0.2,0.02-0.3c-0.01-0.11,0-0.24,0.02-0.38c0.02-0.14,0.04-0.28,0.06-0.45
	c0.03-0.18,0.05-0.38,0.08-0.59c0.03-0.21,0.06-0.45,0.1-0.73l1.41-10.33h-2.22l0.32-2.35h2.22l0.61-4.47l3.3-1.8h1.39l-0.85,6.28
	h3.06l-0.32,2.35h-3.06l-1.44,10.57c-0.03,0.26-0.06,0.49-0.08,0.7c-0.02,0.21-0.03,0.4-0.03,0.59c0.03,0.16,0.05,0.31,0.06,0.45
	c0.01,0.14,0.04,0.25,0.08,0.31c0.03,0.09,0.09,0.16,0.18,0.21c0.09,0.05,0.18,0.1,0.26,0.14c0.06,0.02,0.15,0.04,0.25,0.05
	c0.1,0.01,0.21,0.03,0.32,0.05c0.02,0,0.05-0.01,0.07-0.02c0.02-0.01,0.05-0.03,0.07-0.05c0.03-0.02,0.06-0.04,0.08-0.05
	c0.02-0.01,0.05-0.03,0.07-0.05H444.61z M415.32,248.87L415.32,248.87l2.44-17.95h1.39h2.74l-0.15,1.11
	c0.18-0.12,0.36-0.24,0.55-0.36c0.19-0.13,0.39-0.24,0.58-0.33c0.27-0.12,0.54-0.22,0.8-0.31c0.27-0.09,0.55-0.18,0.83-0.25
	c0.29-0.07,0.58-0.12,0.89-0.15c0.3-0.03,0.61-0.05,0.91-0.05h1.39c0.3,0,0.59,0.02,0.86,0.05c0.27,0.03,0.54,0.07,0.82,0.12
	c0.24,0.07,0.49,0.15,0.75,0.25c0.25,0.09,0.49,0.19,0.7,0.31c0.24,0.11,0.45,0.24,0.64,0.38c0.19,0.14,0.35,0.3,0.49,0.48
	c0.16,0.16,0.3,0.34,0.41,0.52c0.11,0.19,0.22,0.37,0.31,0.56l0.02,0.1l0.06,0.1l-0.01,0.11l0.06,0.07l0.02,0.1l0.06,0.07l-0.01,0.1
	l0.06,0.07c0.03,0.09,0.06,0.2,0.08,0.33c0.02,0.13,0.03,0.25,0.04,0.36c0.03,0.11,0.04,0.23,0.04,0.36c-0.01,0.13-0.01,0.26,0,0.4
	c-0.01,0.07-0.02,0.14-0.03,0.22c-0.01,0.08-0.01,0.15,0.01,0.23c-0.01,0.09-0.02,0.18-0.04,0.27c-0.01,0.1-0.03,0.2-0.04,0.31
	c-0.01,0.09-0.03,0.2-0.04,0.31c-0.02,0.11-0.02,0.23-0.01,0.35c-0.01,0.11-0.03,0.23-0.05,0.35c-0.02,0.11-0.03,0.24-0.05,0.38
	l-1.5,11.02h-1.39h-3.06l1.47-10.85c0.01-0.09,0.03-0.18,0.04-0.28c0.01-0.09,0.02-0.18,0.03-0.27c-0.01-0.09-0.01-0.18,0-0.26
	c0.01-0.08,0.02-0.15,0.03-0.22c0.02-0.17,0.03-0.31,0.04-0.46c0.01-0.14,0.01-0.25,0-0.34c0.01-0.05,0.01-0.1,0-0.14
	c-0.01-0.05-0.01-0.1-0.03-0.17c0.01-0.05,0.01-0.1,0-0.14c-0.01-0.05-0.02-0.09-0.03-0.14c-0.02-0.05-0.03-0.09-0.03-0.14
	c-0.01-0.05,0-0.1,0-0.14c-0.02-0.05-0.03-0.09-0.03-0.14c-0.01-0.05-0.02-0.09-0.03-0.14l-0.05-0.1l-0.02-0.1l-0.06-0.1l-0.06-0.11
	c-0.05-0.11-0.12-0.21-0.2-0.29c-0.08-0.09-0.17-0.17-0.28-0.26c-0.08-0.09-0.18-0.18-0.3-0.26c-0.11-0.08-0.24-0.15-0.37-0.22
	c-0.13-0.05-0.27-0.1-0.41-0.16c-0.14-0.06-0.3-0.1-0.46-0.12c-0.02,0-0.05-0.01-0.07-0.02c-0.02-0.01-0.03-0.02-0.03-0.02
	c-0.02,0-0.05,0-0.07,0c-0.02,0-0.05,0-0.07,0c-0.05,0-0.09,0.01-0.14,0.02c-0.05,0.01-0.09,0.02-0.14,0.02
	c-0.02,0-0.05,0.01-0.07,0.02c-0.03,0.01-0.04,0.02-0.04,0.02c-0.05,0-0.08,0.01-0.1,0.02c-0.03,0.01-0.06,0.02-0.11,0.02
	c-0.22,0.07-0.43,0.14-0.64,0.21c-0.21,0.07-0.41,0.16-0.61,0.27c-0.2,0.1-0.39,0.2-0.57,0.33c-0.18,0.13-0.35,0.26-0.51,0.4
	c-0.15,0.14-0.3,0.28-0.42,0.43c-0.13,0.15-0.25,0.31-0.36,0.47c-0.09,0.11-0.16,0.23-0.22,0.36c-0.06,0.13-0.13,0.25-0.19,0.36
	c-0.03,0.07-0.07,0.14-0.1,0.21c-0.03,0.07-0.06,0.13-0.09,0.17c-0.01,0.07-0.03,0.14-0.06,0.21c-0.03,0.07-0.05,0.14-0.06,0.21
	c-0.05,0.14-0.09,0.28-0.13,0.43c-0.04,0.15-0.08,0.32-0.1,0.5c-0.05,0.16-0.08,0.34-0.11,0.53c-0.03,0.2-0.05,0.39-0.08,0.58
	l-1.33,9.81h-1.39H415.32z M399.45,238.17L399.45,238.17l8.64,0.07c0.01-0.09,0.02-0.18,0.04-0.26c0.01-0.08,0.02-0.17,0.03-0.26
	c0.01-0.05,0.01-0.09,0.02-0.12c0.01-0.03,0.01-0.06,0.01-0.09c-0.02-0.05-0.02-0.09-0.02-0.13c0-0.03,0.01-0.06,0.01-0.09
	l-0.05-0.17l0.02-0.18l-0.05-0.17l-0.01-0.18l-0.05-0.14l-0.05-0.17l-0.05-0.14l-0.01-0.17c-0.06-0.21-0.14-0.42-0.23-0.63
	c-0.09-0.2-0.19-0.39-0.31-0.55c-0.11-0.19-0.25-0.35-0.4-0.48c-0.15-0.14-0.32-0.28-0.52-0.42c-0.19-0.11-0.39-0.22-0.6-0.32
	c-0.21-0.11-0.42-0.19-0.64-0.26c-0.11-0.05-0.23-0.08-0.35-0.1c-0.13-0.02-0.26-0.05-0.39-0.07c-0.23,0.03-0.46,0.07-0.67,0.13
	c-0.22,0.06-0.42,0.13-0.62,0.22c-0.32,0.12-0.62,0.26-0.89,0.44c-0.28,0.17-0.55,0.38-0.81,0.6c-0.26,0.23-0.51,0.48-0.75,0.76
	c-0.23,0.28-0.43,0.58-0.59,0.91c-0.18,0.3-0.33,0.61-0.44,0.95C399.62,237.48,399.52,237.82,399.45,238.17z M408.79,243.12
	L408.79,243.12l3.1,0.45c-0.21,0.46-0.42,0.9-0.65,1.32c-0.23,0.42-0.5,0.8-0.8,1.14c-0.28,0.37-0.59,0.7-0.91,0.99
	c-0.33,0.28-0.67,0.56-1.03,0.82c-0.38,0.23-0.77,0.44-1.18,0.62c-0.41,0.19-0.83,0.33-1.25,0.42c-0.46,0.11-0.92,0.2-1.39,0.26
	c-0.47,0.06-0.96,0.09-1.47,0.09l-1.4,0.04c-0.67-0.02-1.29-0.09-1.87-0.19c-0.58-0.1-1.12-0.24-1.63-0.4
	c-0.49-0.18-0.93-0.43-1.34-0.73c-0.41-0.3-0.79-0.66-1.12-1.08c-0.32-0.39-0.6-0.83-0.83-1.32c-0.23-0.48-0.41-1.01-0.52-1.56
	c-0.11-0.56-0.17-1.15-0.17-1.8c-0.01-0.64,0.04-1.33,0.14-2.04c0.1-0.74,0.24-1.43,0.42-2.08c0.18-0.64,0.4-1.26,0.67-1.83
	c0.27-0.6,0.58-1.15,0.94-1.65c0.36-0.5,0.75-0.96,1.18-1.4c0.45-0.44,0.92-0.82,1.4-1.14c0.48-0.32,0.99-0.59,1.53-0.8
	c0.56-0.21,1.13-0.37,1.72-0.49c0.58-0.11,1.2-0.17,1.85-0.17h1.39c0.62,0,1.21,0.06,1.75,0.17c0.54,0.12,1.05,0.28,1.53,0.49
	c0.46,0.21,0.89,0.47,1.28,0.8c0.4,0.32,0.75,0.69,1.07,1.11c0.31,0.44,0.57,0.91,0.78,1.4c0.21,0.5,0.37,1.03,0.48,1.58
	c0.11,0.56,0.17,1.15,0.17,1.79c0.01,0.64-0.04,1.31-0.14,2.03l-0.02,0.18l-0.02,0.17l-0.02,0.1l-0.01,0.11l-0.02,0.14l-0.01,0.07
	l-13.46,0.07c-0.04,0.49-0.06,0.94-0.05,1.35c0.02,0.42,0.06,0.82,0.15,1.21c0.09,0.37,0.21,0.72,0.36,1.04
	c0.15,0.32,0.33,0.61,0.52,0.86c0.22,0.28,0.45,0.52,0.7,0.73c0.25,0.21,0.52,0.38,0.8,0.52c0.2,0.1,0.41,0.17,0.65,0.23
	c0.24,0.06,0.48,0.1,0.73,0.12c0.19-0.02,0.36-0.05,0.51-0.09c0.16-0.03,0.32-0.06,0.48-0.09c0.27-0.07,0.52-0.17,0.75-0.28
	c0.23-0.11,0.47-0.26,0.7-0.42c0.21-0.14,0.41-0.31,0.61-0.5c0.2-0.2,0.4-0.41,0.59-0.64c0.17-0.23,0.33-0.48,0.5-0.76
	c0.16-0.28,0.32-0.59,0.46-0.93H408.79z M363.58,248.87L363.58,248.87l2.44-17.95h1.39h2.75l-0.13,0.97
	c0.15-0.11,0.31-0.21,0.47-0.3c0.16-0.08,0.33-0.17,0.5-0.26c0.27-0.12,0.53-0.22,0.79-0.31c0.25-0.09,0.51-0.18,0.78-0.25
	c0.26-0.07,0.54-0.12,0.82-0.15c0.28-0.03,0.58-0.05,0.87-0.05h1.39c0.33,0,0.63,0.02,0.91,0.05c0.28,0.03,0.56,0.09,0.83,0.15
	c0.25,0.07,0.48,0.16,0.71,0.26c0.23,0.1,0.45,0.22,0.67,0.33c0.19,0.14,0.36,0.3,0.51,0.47c0.15,0.18,0.29,0.35,0.43,0.54
	c0.04,0.05,0.07,0.1,0.1,0.15c0.03,0.06,0.05,0.11,0.07,0.15c0.05-0.02,0.08-0.05,0.11-0.09c0.03-0.03,0.06-0.06,0.08-0.09
	c0.05-0.02,0.09-0.05,0.12-0.09c0.03-0.03,0.05-0.06,0.08-0.09c0.24-0.21,0.47-0.39,0.7-0.55c0.23-0.17,0.47-0.31,0.72-0.45
	c0.25-0.12,0.5-0.22,0.76-0.31c0.25-0.09,0.51-0.18,0.78-0.25c0.26-0.07,0.54-0.12,0.84-0.15c0.3-0.03,0.59-0.05,0.89-0.05h1.39
	c0.26,0,0.51,0.02,0.78,0.05c0.26,0.03,0.51,0.07,0.73,0.12c0.24,0.07,0.47,0.15,0.68,0.23c0.21,0.08,0.42,0.18,0.64,0.3
	c0.19,0.11,0.37,0.24,0.54,0.38c0.17,0.14,0.32,0.27,0.47,0.42c0.14,0.16,0.27,0.33,0.38,0.5c0.12,0.17,0.21,0.35,0.28,0.54
	c0.03,0.12,0.07,0.24,0.1,0.36c0.04,0.13,0.08,0.25,0.11,0.36c0.03,0.14,0.05,0.27,0.07,0.4c0.02,0.13,0.03,0.25,0.03,0.36
	c0.01,0.14,0.01,0.28-0.01,0.43c-0.01,0.15-0.01,0.32-0.01,0.51c0,0.16-0.01,0.33-0.02,0.5c-0.01,0.18-0.03,0.35-0.05,0.54
	l-1.67,12.3h-1.39h-3.06l1.53-11.23c0.05-0.39,0.09-0.76,0.1-1.11c0.01-0.34,0.02-0.65,0.01-0.93c-0.03-0.28-0.08-0.53-0.14-0.78
	c-0.06-0.25-0.14-0.44-0.23-0.61c-0.09-0.16-0.21-0.3-0.36-0.42c-0.15-0.11-0.32-0.22-0.51-0.31c-0.11-0.05-0.23-0.09-0.35-0.12
	c-0.12-0.03-0.27-0.06-0.42-0.09c-0.07,0-0.14,0.01-0.21,0.02c-0.07,0.01-0.14,0.03-0.22,0.05c-0.17,0.02-0.33,0.07-0.5,0.14
	c-0.17,0.07-0.34,0.15-0.52,0.25c-0.17,0.09-0.34,0.18-0.49,0.28c-0.15,0.09-0.3,0.19-0.46,0.31c-0.15,0.11-0.29,0.23-0.41,0.36
	c-0.13,0.13-0.24,0.26-0.35,0.4l-0.08,0.07l0,0.03l-0.08,0.07l-0.01,0.03c-0.03,0.05-0.07,0.1-0.11,0.15
	c-0.04,0.06-0.08,0.11-0.11,0.16c-0.03,0.07-0.06,0.13-0.1,0.19c-0.03,0.06-0.06,0.11-0.09,0.16c-0.06,0.09-0.11,0.2-0.17,0.33
	c-0.05,0.13-0.1,0.25-0.14,0.36c-0.04,0.11-0.08,0.24-0.12,0.38c-0.05,0.14-0.07,0.27-0.09,0.42c-0.05,0.16-0.08,0.32-0.1,0.48
	c-0.02,0.16-0.05,0.34-0.07,0.52l-1.42,10.44h-1.39h-3.06l1.58-11.61c0.05-0.35,0.07-0.67,0.08-0.97c0-0.3-0.01-0.58-0.04-0.83
	c-0.04-0.26-0.08-0.5-0.15-0.71c-0.06-0.22-0.14-0.41-0.24-0.57c-0.12-0.16-0.25-0.3-0.4-0.42c-0.15-0.11-0.32-0.22-0.51-0.31
	c-0.09-0.05-0.19-0.08-0.31-0.1c-0.13-0.02-0.25-0.05-0.39-0.07c-0.02,0-0.06,0.01-0.11,0.02c-0.05,0.01-0.08,0.02-0.11,0.02
	c-0.05,0.02-0.09,0.04-0.13,0.05c-0.04,0.01-0.08,0.02-0.13,0.02c-0.19,0.05-0.38,0.1-0.56,0.18c-0.18,0.07-0.37,0.15-0.57,0.24
	c-0.17,0.09-0.35,0.2-0.53,0.31c-0.18,0.11-0.33,0.23-0.47,0.35c-0.13,0.11-0.26,0.25-0.38,0.38c-0.12,0.14-0.23,0.29-0.32,0.45
	l-0.01,0.03l-0.04,0.03l-0.01,0.03c-0.03,0.07-0.07,0.14-0.11,0.21c-0.05,0.07-0.09,0.13-0.15,0.17c-0.03,0.07-0.06,0.14-0.1,0.21
	c-0.03,0.07-0.06,0.14-0.1,0.21c-0.07,0.14-0.13,0.28-0.18,0.43c-0.06,0.15-0.11,0.3-0.15,0.47c-0.05,0.16-0.09,0.34-0.14,0.52
	c-0.05,0.19-0.09,0.38-0.11,0.59c-0.05,0.2-0.09,0.43-0.13,0.65c-0.03,0.23-0.06,0.48-0.1,0.73l-1.26,9.29h-1.39H363.58z
	 M357.15,227.59L357.15,227.59l0.48-3.5h1.39h3.06l-0.47,3.5h-1.39H357.15z M354.26,248.87L354.26,248.87l2.44-17.95h1.39h3.06
	l-2.44,17.95h-1.39H354.26z M344.79,248.87L344.79,248.87l3.37-24.78h1.39h3.06l-3.37,24.78h-1.39H344.79z M327.57,238.68h7.02
	l-1.64-6.86l-0.6-2.95l-1.07,2.53L327.57,238.68z M317.64,248.87L317.64,248.87l12.89-24.78h1.39h3.54l6.81,24.78h-1.39h-3.75
	l-1.86-7.49h-9l-3.76,7.49h-1.39H317.64z M293.49,238.17L293.49,238.17l8.64,0.07c0.01-0.09,0.02-0.18,0.03-0.26
	c0.01-0.08,0.02-0.17,0.03-0.26c0.01-0.05,0.01-0.09,0.02-0.12c0.01-0.03,0.01-0.06,0.01-0.09c-0.02-0.05-0.02-0.09-0.02-0.13
	c0.01-0.03,0.01-0.06,0.01-0.09l-0.05-0.17l0.02-0.18l-0.05-0.17l-0.01-0.18l-0.05-0.14l-0.05-0.17l-0.05-0.14l-0.01-0.17
	c-0.06-0.21-0.14-0.42-0.23-0.63c-0.09-0.2-0.19-0.39-0.31-0.55c-0.11-0.19-0.25-0.35-0.4-0.48c-0.16-0.14-0.33-0.28-0.51-0.42
	c-0.19-0.11-0.39-0.22-0.6-0.32c-0.21-0.11-0.42-0.19-0.64-0.26c-0.11-0.05-0.23-0.08-0.35-0.1c-0.13-0.02-0.25-0.05-0.39-0.07
	c-0.23,0.03-0.46,0.07-0.67,0.13c-0.22,0.06-0.43,0.13-0.62,0.22c-0.32,0.12-0.62,0.26-0.89,0.44c-0.28,0.17-0.55,0.38-0.81,0.6
	c-0.26,0.23-0.51,0.48-0.75,0.76c-0.23,0.28-0.43,0.58-0.59,0.91c-0.18,0.3-0.33,0.61-0.44,0.95
	C293.65,237.48,293.56,237.82,293.49,238.17z M302.82,243.12L302.82,243.12l3.1,0.45c-0.2,0.46-0.42,0.9-0.65,1.32
	c-0.23,0.42-0.5,0.8-0.8,1.14c-0.28,0.37-0.59,0.7-0.91,0.99c-0.33,0.28-0.67,0.56-1.03,0.82c-0.38,0.23-0.77,0.44-1.18,0.62
	c-0.41,0.19-0.83,0.33-1.25,0.42c-0.46,0.11-0.92,0.2-1.39,0.26c-0.47,0.06-0.96,0.09-1.47,0.09l-1.39,0.04
	c-0.67-0.02-1.29-0.09-1.87-0.19c-0.58-0.1-1.12-0.24-1.63-0.4c-0.48-0.18-0.93-0.43-1.34-0.73c-0.41-0.3-0.78-0.66-1.12-1.08
	c-0.32-0.39-0.59-0.83-0.83-1.32c-0.24-0.48-0.41-1.01-0.52-1.56c-0.11-0.56-0.17-1.15-0.17-1.8c-0.01-0.64,0.04-1.33,0.14-2.04
	c0.1-0.74,0.24-1.43,0.42-2.08c0.18-0.64,0.4-1.26,0.67-1.83c0.27-0.6,0.58-1.15,0.93-1.65c0.36-0.5,0.75-0.96,1.18-1.4
	c0.46-0.44,0.92-0.82,1.41-1.14c0.48-0.32,1-0.59,1.53-0.8c0.56-0.21,1.13-0.37,1.71-0.49c0.58-0.11,1.2-0.17,1.85-0.17h1.39
	c0.63,0,1.21,0.06,1.74,0.17c0.54,0.12,1.05,0.28,1.53,0.49c0.46,0.21,0.88,0.47,1.28,0.8c0.39,0.32,0.75,0.69,1.07,1.11
	c0.31,0.44,0.57,0.91,0.78,1.4c0.21,0.5,0.37,1.03,0.48,1.58c0.11,0.56,0.17,1.15,0.17,1.79c0.01,0.64-0.03,1.31-0.14,2.03
	l-0.02,0.18l-0.02,0.17l-0.01,0.1l-0.01,0.11l-0.02,0.14l-0.01,0.07l-13.45,0.07c-0.04,0.49-0.06,0.94-0.05,1.35
	c0.01,0.42,0.06,0.82,0.15,1.21c0.09,0.37,0.21,0.72,0.36,1.04c0.15,0.32,0.33,0.61,0.53,0.86c0.21,0.28,0.45,0.52,0.7,0.73
	c0.25,0.21,0.51,0.38,0.8,0.52c0.19,0.1,0.41,0.17,0.65,0.23c0.24,0.06,0.48,0.1,0.73,0.12c0.19-0.02,0.36-0.05,0.51-0.09
	c0.16-0.03,0.32-0.06,0.48-0.09c0.27-0.07,0.51-0.17,0.75-0.28c0.23-0.11,0.47-0.26,0.7-0.42c0.21-0.14,0.41-0.31,0.61-0.5
	c0.2-0.2,0.39-0.41,0.59-0.64c0.17-0.23,0.34-0.48,0.5-0.76c0.16-0.28,0.32-0.59,0.46-0.93H302.82z"/>
<path class="st1" d="M468.07,243.54L468.07,243.54l3.08-0.42h1.39c0.01,0.3,0.04,0.58,0.09,0.85c0.06,0.27,0.14,0.51,0.25,0.75
	c0.08,0.23,0.19,0.44,0.33,0.64c0.13,0.2,0.28,0.38,0.45,0.54c0.16,0.16,0.35,0.31,0.57,0.43c0.21,0.13,0.44,0.22,0.69,0.3
	c0.18,0.05,0.36,0.09,0.54,0.12c0.18,0.03,0.38,0.06,0.61,0.09c0.16,0,0.32-0.02,0.48-0.05c0.16-0.03,0.32-0.06,0.48-0.09
	c0.26-0.07,0.51-0.15,0.75-0.24c0.23-0.09,0.45-0.21,0.65-0.35c0.2-0.11,0.39-0.25,0.56-0.42c0.17-0.16,0.32-0.32,0.43-0.48
	c0.12-0.18,0.21-0.37,0.28-0.55c0.07-0.19,0.13-0.39,0.15-0.63c0.02-0.17,0.02-0.31,0.01-0.45c-0.02-0.14-0.04-0.27-0.07-0.38
	c-0.06-0.12-0.11-0.23-0.18-0.33c-0.07-0.1-0.15-0.21-0.26-0.3c-0.1-0.09-0.23-0.18-0.38-0.26c-0.15-0.08-0.31-0.17-0.49-0.26
	c-0.2-0.07-0.41-0.15-0.63-0.25c-0.22-0.09-0.45-0.18-0.69-0.28l-1.96-0.45c-0.05,0-0.09-0.01-0.14-0.02
	c-0.04-0.01-0.09-0.03-0.13-0.05l-0.2-0.07l-0.24-0.03l-0.2-0.07c-0.07-0.03-0.13-0.05-0.2-0.06c-0.07-0.01-0.14-0.03-0.2-0.05
	c-0.07-0.02-0.13-0.05-0.2-0.07c-0.07-0.02-0.12-0.05-0.17-0.07c-0.13-0.05-0.25-0.09-0.36-0.12c-0.11-0.04-0.22-0.07-0.33-0.09
	c-0.11-0.05-0.21-0.09-0.32-0.12c-0.1-0.03-0.19-0.07-0.28-0.12c-0.09-0.05-0.17-0.09-0.26-0.13c-0.09-0.03-0.17-0.07-0.26-0.12
	c-0.09-0.05-0.16-0.09-0.24-0.14c-0.07-0.05-0.14-0.1-0.21-0.14c-0.15-0.09-0.29-0.19-0.43-0.29c-0.14-0.11-0.26-0.23-0.38-0.37
	c-0.12-0.14-0.22-0.29-0.3-0.45c-0.08-0.17-0.16-0.32-0.23-0.49c-0.07-0.18-0.13-0.37-0.19-0.54c-0.06-0.18-0.1-0.35-0.12-0.54
	c-0.02-0.18-0.03-0.38-0.02-0.59c0.01-0.21,0.02-0.42,0.05-0.63c0.05-0.39,0.14-0.76,0.25-1.11c0.12-0.34,0.28-0.67,0.48-0.97
	c0.18-0.32,0.42-0.63,0.69-0.91c0.28-0.27,0.59-0.53,0.92-0.76c0.33-0.23,0.68-0.43,1.05-0.6c0.37-0.18,0.76-0.32,1.17-0.43
	c0.41-0.12,0.84-0.21,1.3-0.28c0.46-0.07,0.95-0.1,1.46-0.1h1.39c0.39,0,0.77,0.02,1.14,0.05c0.36,0.03,0.72,0.09,1.05,0.15
	c0.34,0.07,0.66,0.16,0.95,0.26c0.3,0.1,0.58,0.22,0.84,0.33c0.26,0.14,0.5,0.28,0.72,0.43c0.22,0.15,0.43,0.32,0.61,0.5
	c0.18,0.19,0.34,0.38,0.48,0.59c0.13,0.21,0.24,0.44,0.32,0.7l0.02,0.14l0.06,0.1l-0.01,0.07l0.06,0.04l-0.01,0.07l0.06,0.07
	c0.02,0.05,0.02,0.1,0.03,0.15c0,0.06,0.01,0.11,0.03,0.16c0.02,0.05,0.03,0.1,0.03,0.15c0,0.06,0.01,0.11,0.03,0.16
	c0.02,0.07,0.02,0.14,0.03,0.21c0,0.07,0,0.14-0.01,0.21c0,0.02-0.01,0.06-0.01,0.1c-0.01,0.05,0,0.08,0.02,0.1
	c-0.01,0.05,0,0.09,0,0.12c0,0.04,0,0.08,0,0.13l-3.05,0.45h-1.39c0.01-0.26-0.01-0.48-0.05-0.69c-0.04-0.21-0.11-0.4-0.2-0.59
	c-0.07-0.19-0.16-0.35-0.28-0.51c-0.12-0.15-0.25-0.28-0.4-0.4c-0.14-0.11-0.31-0.22-0.5-0.31c-0.18-0.1-0.39-0.18-0.61-0.25
	c-0.13-0.05-0.27-0.07-0.4-0.09c-0.14-0.01-0.28-0.03-0.44-0.06c-0.17,0.03-0.32,0.05-0.48,0.06c-0.15,0.01-0.3,0.04-0.45,0.09
	c-0.24,0.05-0.46,0.1-0.67,0.17c-0.21,0.07-0.41,0.17-0.61,0.28c-0.17,0.09-0.34,0.21-0.5,0.33c-0.16,0.13-0.29,0.26-0.4,0.4
	c-0.11,0.14-0.19,0.29-0.25,0.43c-0.05,0.15-0.09,0.32-0.12,0.5c-0.01,0.1-0.03,0.19-0.04,0.3c-0.01,0.1-0.01,0.21-0.01,0.3
	c0.01,0.09,0.03,0.17,0.06,0.24c0.02,0.07,0.05,0.13,0.06,0.17c0.03,0.07,0.07,0.13,0.11,0.19c0.04,0.06,0.09,0.11,0.15,0.16
	c0.06,0.07,0.14,0.13,0.24,0.19c0.1,0.06,0.2,0.11,0.31,0.16c0.04,0.02,0.08,0.04,0.11,0.05c0.03,0.01,0.07,0.03,0.11,0.05
	c0.05,0.02,0.09,0.05,0.13,0.07c0.05,0.02,0.1,0.03,0.17,0.03c0.04,0.02,0.09,0.05,0.13,0.07c0.04,0.02,0.1,0.05,0.17,0.07
	c0.04,0.02,0.1,0.04,0.17,0.05c0.07,0.01,0.13,0.03,0.2,0.05s0.13,0.05,0.18,0.07c0.05,0.02,0.11,0.03,0.19,0.03
	c0.06,0.02,0.14,0.05,0.22,0.07c0.07,0.02,0.15,0.05,0.22,0.07c0.16,0.02,0.32,0.06,0.48,0.12c0.17,0.06,0.34,0.11,0.52,0.15
	c0.23,0.07,0.44,0.14,0.64,0.21c0.19,0.07,0.39,0.13,0.57,0.17c0.18,0.05,0.35,0.09,0.52,0.13c0.17,0.03,0.33,0.07,0.48,0.12
	c0.07,0.02,0.14,0.05,0.2,0.07c0.07,0.02,0.13,0.05,0.2,0.07c0.05,0.02,0.1,0.05,0.17,0.07c0.07,0.03,0.13,0.05,0.2,0.07
	c0.11,0.02,0.23,0.05,0.35,0.09c0.13,0.03,0.23,0.07,0.31,0.12l0.13,0.07l0.2,0.07l0.13,0.07l0.2,0.07
	c0.22,0.09,0.42,0.19,0.62,0.31c0.19,0.11,0.36,0.24,0.51,0.38c0.16,0.14,0.31,0.29,0.43,0.43c0.12,0.15,0.22,0.32,0.31,0.5
	c0.09,0.19,0.17,0.38,0.22,0.59c0.05,0.21,0.1,0.42,0.14,0.62c0.02,0.21,0.03,0.43,0.03,0.66c0,0.23-0.01,0.47-0.05,0.73
	c-0.06,0.44-0.15,0.85-0.29,1.23c-0.13,0.38-0.32,0.74-0.54,1.06c-0.21,0.35-0.47,0.67-0.78,0.97c-0.31,0.3-0.64,0.58-1,0.83
	c-0.38,0.25-0.77,0.47-1.18,0.66c-0.4,0.19-0.84,0.34-1.29,0.46c-0.46,0.09-0.92,0.17-1.41,0.24c-0.49,0.07-1,0.1-1.53,0.1
	l-1.39,0.04c-0.58-0.02-1.11-0.07-1.6-0.13c-0.49-0.06-0.96-0.14-1.41-0.26c-0.43-0.07-0.82-0.19-1.17-0.35
	c-0.35-0.16-0.67-0.36-0.96-0.59c-0.27-0.23-0.52-0.49-0.75-0.78c-0.23-0.29-0.41-0.62-0.54-0.98c-0.16-0.37-0.28-0.78-0.36-1.22
	C468.14,244.52,468.09,244.04,468.07,243.54"/>
</svg>
