<svg width="212" height="51" viewBox="0 0 212 51" fill="none" xmlns="http://www.w3.org/2000/svg">
<path d="M161.943 23.3376C161.943 23.3376 158.014 23.3376 156.749 23.3376C155.484 23.3376 154.552 23.6721 153.553 24.8093C152.555 25.9464 146.229 33.2377 146.229 33.2377V23.3376H139.038V48.6898C139.038 49.4926 139.704 50.1615 140.503 50.1615H146.229V37.9871C146.229 37.9871 151.622 46.4155 152.555 47.8871C153.487 49.3588 154.419 50.0946 156.616 50.0946C158.747 50.0946 162.475 50.0946 162.475 50.0946L152.488 34.308L161.943 23.3376ZM131.648 23.3376C131.648 23.3376 116.134 23.3376 115.668 23.3376V47.6865C115.668 49.0243 117 50.0946 118.331 50.0946H131.581C132.38 50.0946 133.046 49.4257 133.046 48.623V45.1446H123.858C123.258 45.1446 122.792 44.6763 122.792 44.0743V38.4553H130.982V33.5722H122.792V28.2208H133.046V24.8093C133.046 24.0066 132.447 23.3376 131.648 23.3376ZM182.05 23.3376C182.05 23.3376 166.537 23.3376 166.071 23.3376V47.6865C166.071 49.0243 167.402 50.0946 168.734 50.0946H181.984C182.783 50.0946 183.449 49.4257 183.449 48.623V45.1446H174.26C173.661 45.1446 173.195 44.6763 173.195 44.0743V38.4553H181.385V33.5722H173.195V28.2208H183.449V24.8093C183.515 24.0066 182.849 23.3376 182.05 23.3376ZM80.4459 23.3376H73.255V48.6898C73.255 49.4926 73.9208 50.1615 74.7198 50.1615H80.4459V23.3376ZM65.3317 23.3376C65.3317 23.3376 49.818 23.3376 49.352 23.3376V47.6865C49.352 49.0912 50.6836 50.0946 52.0153 50.0946H65.2651C66.0641 50.0946 66.7299 49.4257 66.7299 48.623V45.1446H57.6082C57.0089 45.1446 56.5429 44.6763 56.5429 44.0743V38.4553H64.7325V33.5722H56.5429V28.2208H66.7965V24.8093C66.7965 24.0066 66.1307 23.3376 65.3317 23.3376ZM42.1611 23.3376H34.9702V33.5722H28.7115V23.3376H20.3887V24.4079C20.3887 24.4079 21.5206 24.8093 21.5206 26.214V50.1615H28.7115V38.5222H34.9702V50.1615H42.1611V23.3376ZM108.41 23.3376V48.6898C108.41 49.4926 107.745 50.1615 106.946 50.1615H102.551L92.8968 34.8431C92.8968 34.8431 93.0965 36.1141 93.0965 37.7195C93.0965 39.3249 93.0965 50.1615 93.0965 50.1615H87.77V23.4045C87.77 23.4045 88.6355 23.4045 91.2322 23.4045C93.03 23.4045 94.295 24.1404 95.2272 25.612C96.0262 26.8829 103.35 38.4553 103.35 38.4553C103.35 38.4553 103.084 37.6526 103.084 35.5789C103.084 33.4384 103.084 23.4714 103.084 23.4714H108.41V23.3376ZM211.347 23.3376V24.4079C211.347 24.4079 210.215 24.8762 210.215 26.214V48.6898C210.215 49.4926 209.549 50.1615 208.817 50.1615H204.422L194.768 34.8431C194.768 34.8431 194.967 36.1141 194.967 37.7195C194.967 39.3249 194.967 50.1615 194.967 50.1615H189.641V23.4045C189.641 23.4045 190.506 23.4045 193.103 23.4045C194.901 23.4045 196.166 24.1404 197.098 25.612C197.897 26.8829 205.221 38.4553 205.221 38.4553C205.221 38.4553 204.955 37.6526 204.955 35.5789C204.955 33.4384 204.955 23.4714 204.955 23.4714H211.347V23.3376Z" fill="#00561F"/>
<path d="M7.00559 33.1039C6.67268 33.3715 6.2066 33.037 6.33977 32.6357C6.53952 32.0336 10.135 20.8626 10.135 20.8626L0.214197 13.5714C-0.185297 13.3038 0.0144502 12.7687 0.480526 12.7687C1.07977 12.7687 12.7317 12.7687 12.7317 12.7687C12.7317 12.7687 16.3271 1.59763 16.5269 1.06249C16.66 0.661136 17.2593 0.661136 17.3924 1.06249C17.5922 1.66452 21.1876 12.7687 21.1876 12.7687C21.1876 12.7687 32.8395 12.7687 33.4388 12.7687C33.9048 12.7687 34.038 13.3038 33.7051 13.5714L27.7793 17.9194H20.7881L18.5909 11.2301L16.3937 17.9194H9.46914L15.1286 22.0667L12.9314 28.7559C12.9314 28.7559 7.40509 32.8364 7.00559 33.1039Z" fill="#E30613"/>
</svg>
