<svg xmlns="http://www.w3.org/2000/svg" xmlns:xlink="http://www.w3.org/1999/xlink" xmlns:xodm="http://www.corel.com/coreldraw/odm/2003" xml:space="preserve" width="78.7398mm" height="19.4732mm" style="shape-rendering:geometricPrecision; text-rendering:geometricPrecision; image-rendering:optimizeQuality; fill-rule:evenodd; clip-rule:evenodd" viewBox="0 0 7873.98 1947.32"> <defs>  <style type="text/css">   <![CDATA[    .fil0 {fill:#00B140}    .fil1 {fill:#F7372D}    .fil2 {fill:#F7372D}    .fil3 {fill:#F7372D;fill-rule:nonzero}   ]]>  </style> </defs> <g id="Camada_x0020_1">  <metadata id="CorelCorpID_0Corel-Layer"></metadata>  <path class="fil0" d="M2097.62 1455.58l0 -151.84 244.42 0 0 219.07c0,56.68 13.67,85.17 41.02,85.17 19.09,0 31.62,-7.97 37.6,-24.21 3.42,-10.54 5.13,-30.77 5.13,-60.96l0 -97.72c0,-29.34 -2.85,-51.27 -8.26,-65.8 -9.69,-24.5 -31.91,-54.41 -66.95,-89.45l-145.28 -145.29c-47.29,-47.29 -76.35,-82.9 -86.89,-106.82 -13.95,-33.34 -20.79,-91.73 -20.79,-175.2 0,-85.18 13.67,-150.98 41.02,-197.13 46.15,-77.2 131.89,-115.95 257.81,-115.95 117.94,0 197.7,33.05 239.58,99.42 22.79,35.33 34.18,86.6 34.18,153.27l0 208.81 -244.42 0 0 -189.73c0,-30.77 -1.71,-50.42 -5.13,-59.54 -4.84,-13.96 -16.81,-20.79 -35.89,-20.79 -26.21,0 -39.31,18.52 -39.31,55.83 0,57.83 2.85,99.14 8.26,123.64 7.97,36.75 25.64,68.94 53.55,96.85l145.29 147c61.25,62.1 97.14,109.1 107.68,141.01 8.83,25.64 13.39,88.6 13.39,189.44 0,104.55 -19.09,182.04 -57.54,231.89 -45.58,59.54 -122.79,89.45 -231.32,89.45 -121.36,0 -202.83,-33.62 -244.71,-100.85 -28.2,-46.15 -42.44,-126.2 -42.44,-239.57zm840.41 -404.52l0 86.88 -218.78 0 0 -121.07c0,-158.68 89.16,-237.87 267.78,-237.87 100.27,0 169.21,29.06 206.53,86.89 27.92,42.16 41.88,108.82 41.88,200.26l0 625.87 11.96 78.34 -216.78 0 -13.4 -88.6c-36.17,41.88 -56.97,65.53 -62.67,70.37 -28.2,23.64 -62.38,35.32 -101.7,35.32 -90.3,0 -134.74,-64.95 -133.6,-194.57l0 -186.3c0.57,-44.44 5.41,-77.2 14.24,-98.57 13.39,-31.62 39.6,-55.83 78.63,-72.64l90.59 -39.31c76.06,-32.77 113.94,-68.66 113.94,-107.69l0 -90.87c0,-33.9 -12.81,-50.99 -38.17,-50.99 -18.23,0 -29.91,9.11 -35.61,27.63 -3.13,12.25 -4.84,37.89 -4.84,76.92zm35.89 550.09c23.93,0 35.9,-22.51 35.9,-67.24l0 -233.31c-28.49,19.38 -45.58,33.05 -51.85,40.17 -13.39,16.24 -19.94,40.17 -19.94,71.51l0 115.08c0,49.29 11.97,73.79 35.89,73.79zm327.64 169.21l0 -974.27 218.79 0 0 77.21c27.35,-33.34 47.28,-54.99 59.82,-64.39 25.64,-19.94 56.41,-29.91 92.59,-29.91 64.37,0 106.54,26.49 126.48,79.19 9.97,27.35 15.1,76.07 15.1,146.15l0 766.02 -223.91 0 0 -741.81c0,-44.44 -11.4,-66.66 -34.19,-66.66 -23.93,0 -35.89,29.63 -35.89,89.17l0 719.3 -218.79 0zm546.43 -803.34l0 -170.93 63.24 0 0 -176.05 222.2 0 0 176.05 68.37 0 0 170.93 -68.37 0 0 550.09c0,36.75 3.42,60.67 10.26,71.79 8.54,15.09 27.91,22.5 58.11,22.5l0 164.09c0,0 -13.96,0.28 -41.88,0.85 -27.63,0.57 -48.43,0.86 -62.38,0.86 -81.48,0 -134.75,-20.23 -160.39,-60.97 -17.38,-27.63 -25.92,-82.04 -25.92,-162.66l0 -586.55 -63.24 0zm606.24 84.04l0 86.88 -218.78 0 0 -121.07c0,-158.68 89.17,-237.87 267.78,-237.87 100.28,0 169.22,29.06 206.54,86.89 27.91,42.16 41.87,108.82 41.87,200.26l0 625.87 11.97 78.34 -216.79 0 -13.39 -88.6c-36.18,41.88 -56.98,65.53 -62.67,70.37 -28.21,23.64 -62.39,35.32 -101.7,35.32 -90.31,0 -134.75,-64.95 -133.61,-194.57l0 -186.3c0.57,-44.44 5.42,-77.2 14.25,-98.57 13.38,-31.62 39.59,-55.83 78.62,-72.64l90.59 -39.31c76.06,-32.77 113.95,-68.66 113.95,-107.69l0 -90.87c0,-33.9 -12.82,-50.99 -38.18,-50.99 -18.23,0 -29.9,9.11 -35.6,27.63 -3.14,12.25 -4.85,37.89 -4.85,76.92zm35.9 550.09c23.93,0 35.89,-22.51 35.89,-67.24l0 -233.31c-28.49,19.38 -45.58,33.05 -51.84,40.17 -13.39,16.24 -19.95,40.17 -19.95,71.51l0 115.08c0,49.29 11.97,73.79 35.9,73.79zm317.38 169.21l0 -974.27 215.37 0 0 974.27 -215.37 0zm272.66 -242.71l0 -137.03 221.92 0 0 156.11c0,53.28 13.1,80.05 39.03,80.05 24.21,0 36.46,-18.23 36.46,-54.98l0 -66.09c0,-28.77 -2.28,-49.56 -6.84,-61.53 -7.69,-20.22 -26.2,-42.45 -55.26,-66.94l-161.53 -135.03c-33.61,-27.92 -54.41,-56.12 -62.95,-84.33 -7.12,-23.93 -10.83,-70.93 -10.83,-141.01 0,-81.19 26.5,-142.72 79.48,-184.6 45.87,-35.61 104.84,-53.27 177.48,-53.27 113.66,0 188.87,27.06 225.9,80.9 22.22,32.77 33.33,92.3 33.33,178.62l0 97.43 -218.78 0 0 -112.53c0,-53.55 -12.25,-80.33 -36.46,-80.33 -19.09,0 -31.05,5.98 -36.18,18.23 -3.99,9.12 -5.98,29.63 -5.98,61.82 0,47 17.09,84.61 51.56,112.81l153.54 128.76c48.72,40.45 77.77,74.35 86.6,100.85 5.99,19.08 9.12,72.92 9.12,162.09 0,92.01 -21.08,158.1 -63.53,198.84 -42.44,40.74 -112.24,60.96 -209.38,60.96 -164.37,0 -246.7,-86.6 -246.7,-259.8zm795.97 -476.59l0 86.88 -218.78 0 0 -121.07c0,-158.68 89.17,-237.87 267.78,-237.87 100.28,0 169.22,29.06 206.54,86.89 27.91,42.16 41.87,108.82 41.87,200.26l0 625.87 11.97 78.34 -216.79 0 -13.39 -88.6c-36.18,41.88 -56.98,65.53 -62.67,70.37 -28.21,23.64 -62.39,35.32 -101.7,35.32 -90.31,0 -134.75,-64.95 -133.61,-194.57l0 -186.3c0.57,-44.44 5.41,-77.2 14.25,-98.57 13.38,-31.62 39.59,-55.83 78.62,-72.64l90.59 -39.31c76.06,-32.77 113.95,-68.66 113.95,-107.69l0 -90.87c0,-33.9 -12.82,-50.99 -38.18,-50.99 -18.23,0 -29.91,9.11 -35.6,27.63 -3.14,12.25 -4.85,37.89 -4.85,76.92zm35.9 550.09c23.93,0 35.89,-22.51 35.89,-67.24l0 -233.31c-28.49,19.38 -45.58,33.05 -51.84,40.17 -13.39,16.24 -19.95,40.17 -19.95,71.51l0 115.08c0,49.29 11.97,73.79 35.9,73.79zm325.93 169.21l0 -1215.27 222.2 0 0 331.31c41.59,-72.08 93.44,-107.97 155.82,-107.4 61.54,0.57 102.28,25.64 122.5,75.21 11.68,28.77 17.38,78.34 17.38,148.42l0 547.52c0,153.55 -49,230.47 -146.71,230.47 -58.12,0 -107.97,-32.48 -148.99,-97.15l0 86.89 -222.2 0zm262.65 -805.05c-27.06,0 -40.45,22.79 -40.45,68.65l0 486.85c0,49 13.39,73.5 40.45,73.5 21.94,0 33.05,-24.5 33.05,-73.5l0 -486.85c0,-45.86 -11.11,-68.65 -33.05,-68.65zm832.44 79.19l0 279.75 -299.12 0 0 209.95c0,30.48 1.71,50.71 5.13,60.68 5.7,16.81 17.09,25.07 34.75,25.07 18.52,0 30.2,-6.84 35.33,-20.8 3.41,-8.83 5.12,-30.77 5.12,-65.24l0 -156.67 218.79 0 0 140.44c0,179.75 -87.75,269.77 -263.51,269.77 -111.39,0 -186.02,-38.46 -224.48,-115.09 -22.22,-45.29 -33.33,-116.22 -33.33,-213.08l0 -440.7c0,-63.53 17.38,-115.95 51.85,-157.82 45.58,-54.41 116.51,-81.76 213.37,-81.76 103.98,0 175.76,28.77 215.36,86.03 27.06,39.6 40.74,99.43 40.74,179.47zm-256.67 -97.99c-20.23,0 -33.05,9.4 -38.18,28.48 -2.85,9.4 -4.27,32.48 -4.27,69.23l0 119.36 84.04 0 0 -117.65c0,-37.89 -1.14,-61.25 -3.42,-70.08 -5.13,-19.66 -17.66,-29.34 -38.17,-29.34zm312.54 823.85l0 -1215.27 217.07 0 0 1215.27 -217.07 0z"></path>  <path class="fil1" d="M1136.76 344.65c427.88,0 774.75,346.87 774.75,774.75 0,427.88 -346.87,774.74 -774.75,774.74 -427.88,0 -774.74,-346.86 -774.74,-774.74 0,-427.88 346.86,-774.75 774.74,-774.75z"></path>  <path class="fil0" d="M1919.35 0.02c-184.21,482.73 -774.17,262.16 -1011.39,753.73 356.35,-247.82 939.92,-79.39 1011.39,-753.73z"></path>  <path class="fil0" d="M1540.03 550.26c-211.25,419.54 -647.05,112.04 -865.93,578.26 267.23,-189.38 801.12,-63.18 865.93,-578.26z"></path>  <path class="fil0" d="M1504.82 792.51c-171.81,458.97 -758.32,240.21 -1009.59,744.45 275.69,-199.24 943.37,-104.03 1009.59,-744.45z"></path>  <path class="fil0" d="M1128.78 1329.11c-236.6,435.04 -683.55,105.37 -867.22,599.75 233.34,-269.86 737.62,32.23 867.22,-599.75z"></path>  <polygon class="fil2" points="4807.45,554.76 5022.81,554.76 5022.81,741.65 4807.45,741.65 "></polygon>  <path class="fil3" d="M2862.7 613.11l-4.32 -34.62c-5.92,15.05 -14.14,25.84 -24.59,32.39 -10.38,6.48 -24.66,9.75 -42.91,9.75 -32.95,0 -56.08,-12.47 -69.45,-37.34 -13.45,-24.86 -20.14,-70.56 -20.14,-136.95 0,-31 1.61,-55.87 4.81,-74.54 3.21,-18.74 8.22,-33.16 14.98,-43.4 8.15,-12.47 19.02,-21.73 32.46,-27.73 13.45,-5.98 30.24,-8.98 50.23,-8.98 33.72,0 58.58,7.94 74.61,23.89 15.95,15.96 23.96,40.69 23.96,74.33l0 7.95 -54.75 0 0 -3.28c0,-18.74 -3.49,-32.95 -10.52,-42.56 -6.97,-9.55 -17.42,-14.35 -31.28,-14.35 -17.07,0 -28.63,6.54 -34.9,19.57 -6.27,13.1 -9.41,47.72 -9.41,103.87 0,44.37 3,74.05 8.99,89.03 5.99,14.97 16.79,22.43 32.39,22.43 15.54,0 26.54,-5.3 33.16,-15.95 6.62,-10.59 9.89,-28.57 9.89,-53.92l0 -10.8 -40.54 0 0 -50.16 96.97 0 0 171.37 -39.64 0zm147.41 -181.4l33.64 0c17.07,0 28.84,-3.41 35.46,-10.24 6.62,-6.76 9.89,-18.95 9.89,-36.5 0,-15.68 -3.62,-26.61 -10.8,-32.88 -7.24,-6.27 -20.34,-9.41 -39.42,-9.41l-28.77 0 0 89.03zm-56.43 181.4l0 -314.31 104.84 0c31.7,0 54.62,6.4 68.55,19.29 14,12.89 20.97,33.86 20.97,62.98 0,20.41 -3.76,36.5 -11.29,48.27 -7.45,11.77 -18.53,18.67 -33.09,20.76 27.8,7.32 42.36,30.79 43.54,70.36 0,1.81 0,3.14 0,4.11l1.67 41.59c0.56,11.84 2.02,21.32 4.46,28.49 2.44,7.11 6.27,13.31 11.43,18.46l-69.53 0c-1.6,-5.29 -2.85,-11.5 -3.69,-18.67 -0.76,-7.17 -1.32,-17.28 -1.6,-30.3l-0.84 -32.88 0 -8.36c0,-18.18 -3.9,-30.72 -11.63,-37.55 -7.73,-6.76 -23.55,-10.17 -47.37,-10.17l-19.99 0 0 137.93 -56.43 0zm241.24 -314.31l58.52 0 0 211.91c0,24.24 2.99,40.68 8.91,49.32 5.92,8.64 16.37,12.96 31.49,12.96 14.98,0 25.36,-4.39 31.14,-13.1 5.78,-8.71 8.71,-25.36 8.71,-50.02l0 -211.07 57.68 0 0 216.99c0,21.11 -1.19,36.51 -3.55,46.19 -2.37,9.75 -6.35,18.25 -11.99,25.63 -8.43,11.01 -19.57,19.23 -33.44,24.73 -13.86,5.51 -30.3,8.29 -49.32,8.29 -35.94,0 -61.23,-7.8 -76,-23.33 -14.76,-15.61 -22.15,-42.71 -22.15,-81.51l0 -216.99zm306.09 137.51l24.46 0c18.25,0 31.07,-3.55 38.45,-10.73 7.32,-7.11 11.01,-19.3 11.01,-36.57 0,-17.42 -3.35,-29.47 -10.1,-36.23 -6.76,-6.75 -19.58,-10.1 -38.53,-10.1l-25.29 0 0 93.63zm-56.49 176.8l0 -314.31 101.64 0c31,0 53.29,6.96 66.87,20.82 13.59,13.87 20.41,36.58 20.41,68.13 0,31 -7.24,54.13 -21.73,69.25 -14.49,15.18 -36.64,22.78 -66.39,22.78l-42.7 0 0 133.33 -58.1 0zm281.29 -157.09c0,51.76 3,84.29 9.06,97.67 6.06,13.44 17.28,20.13 33.58,20.13 16.02,0 27.03,-6.55 32.95,-19.71 5.92,-13.1 8.85,-45.84 8.85,-98.09 0,-52.25 -3,-84.99 -8.99,-98.36 -5.99,-13.3 -17.07,-19.99 -33.23,-19.99 -16.16,0 -27.24,6.69 -33.23,19.99 -5.99,13.37 -8.99,46.11 -8.99,98.36zm-59.77 -0.07c0,-33.29 1.54,-59.98 4.67,-79.9 3.14,-19.92 8.08,-34.9 14.7,-45 9.13,-14.28 20,-24.45 32.67,-30.58 12.61,-6.13 29.26,-9.2 49.95,-9.2 20.69,0 37.34,3.07 49.95,9.2 12.68,6.13 23.61,16.3 32.88,30.58 6.62,10.38 11.49,25.43 14.56,45.35 3.06,19.85 4.6,46.32 4.6,79.55 0,33.09 -1.54,59.56 -4.67,79.49 -3.14,19.92 -8.01,35.04 -14.49,45.42 -9.27,14.28 -20.2,24.45 -32.88,30.58 -12.61,6.13 -29.26,9.19 -49.95,9.19 -20.69,0 -37.34,-3.06 -49.95,-9.19 -12.67,-6.13 -23.54,-16.3 -32.67,-30.58 -6.62,-10.11 -11.56,-25.08 -14.7,-45.01 -3.13,-19.92 -4.67,-46.6 -4.67,-79.9z"></path> </g></svg>