<svg xmlns="http://www.w3.org/2000/svg" width="120" height="28" viewBox="0 0 120 28" fill="none"><path d="M17.1158 9.99659C17.6873 7.6407 17.9414 5.28482 17.8778 2.86526V2.80159C22.0057 2.35588 26.6417 1.8465 29.3089 0C29.69 2.35588 30.071 6.23991 25.4351 12.7982C20.6721 19.4201 13.3054 23.0495 7.20884 24.9596C8.66948 23.8135 10.0031 22.4764 11.2732 21.0756C14.1945 17.7646 16.0997 14.008 17.1158 9.99659ZM15.4646 3.11995C9.74908 3.69301 5.7482 5.53951 3.20796 8.72314C0.4137 12.1615 -0.538889 17.4463 0.286688 24.6413C0.350194 25.3417 0.4137 25.851 0.477206 26.2331H0.540712C3.589 24.7686 15.5281 17.9557 15.4646 3.11995ZM31.0871 7.44969C30.198 9.86924 28.9914 12.1615 27.4672 14.2626C22.6408 20.9483 15.5281 24.5776 10.3206 26.4878C8.66948 27.1245 7.08183 27.5702 5.7482 27.9522C9.81259 28.1433 13.5594 27.7612 16.8617 26.8061C20.6086 25.7237 23.6569 23.8772 26.0701 21.394C29.5629 17.7646 31.3411 12.8619 31.0871 7.44969Z" fill="url(#paint0_radial_2010_99499)"></path><path d="M47.2194 13.1188C46.3939 12.5457 44.7427 11.909 43.028 11.909C41.3134 11.909 40.1068 12.6731 40.1068 13.8192C40.1068 14.8379 41.0594 15.3473 42.5835 15.5383L44.1076 15.7294C46.8384 16.1114 48.4896 17.2575 48.4896 19.4224C48.4896 21.9056 46.2668 23.4974 42.774 23.4974C41.1864 23.4974 39.0272 23.1154 37.3125 21.8419L38.3286 20.1864C39.2812 20.9505 40.5513 21.5872 42.7105 21.5872C44.8697 21.5872 46.1398 20.8868 46.1398 19.6134C46.1398 18.6583 45.3143 18.0852 43.5361 17.8306L42.0119 17.6395C39.1542 17.2575 37.757 15.984 37.757 14.0102C37.757 11.527 39.7892 10.0625 42.9645 10.0625C44.9967 10.0625 46.8384 10.5719 48.1085 11.4633L47.2194 13.1188Z" fill="#03267F"></path><path d="M62.0152 17.7634C62.0152 21.6474 59.221 23.4302 56.1092 23.4302C52.9974 23.4302 50.2031 21.6474 50.2031 17.7634V10.25H52.4258V17.5723C52.4258 20.1829 54.0135 21.3927 56.1092 21.3927C58.2049 21.3927 59.7925 20.2466 59.7925 17.5723V10.25H62.0152V17.7634Z" fill="#03267F"></path><path d="M75.1564 11.8418L67.2181 21.138H75.2834V23.1755H64.2969V21.5837L72.3621 12.2875H64.5509V10.25H75.2199V11.8418H75.1564Z" fill="#03267F"></path><path d="M89.5071 23.1814H87.2844V21.4622C86.2683 22.672 84.7442 23.4361 82.712 23.4361C79.0921 23.4361 76.2344 20.6345 76.2344 16.6868C76.2344 12.7391 79.0286 9.9375 82.712 9.9375C84.7442 9.9375 86.2683 10.7016 87.2844 11.975V10.1922H89.5071V23.1814ZM78.5841 16.6868C78.5841 19.2337 80.3623 21.3349 83.0295 21.3349C85.6968 21.3349 87.4749 19.361 87.4749 16.6868C87.4749 14.0125 85.6333 12.0387 83.0295 12.0387C80.4258 12.0387 78.5841 14.1399 78.5841 16.6868Z" fill="#03267F"></path><path d="M104.375 15.1586V23.1814H102.152V15.859C102.152 13.5032 100.818 12.1024 98.5956 12.1024C96.4999 12.1024 94.7852 13.5032 94.7852 15.9227V23.1814H92.5625V10.2559H94.7852V11.9113C95.8648 10.4469 97.516 9.9375 98.9766 9.9375C102.215 9.9375 104.375 12.0387 104.375 15.1586Z" fill="#03267F"></path><path d="M119.998 16.6868C119.998 20.5071 117.076 23.4361 113.139 23.4361C109.202 23.4361 106.344 20.5071 106.344 16.6868C106.344 12.8664 109.265 9.9375 113.139 9.9375C117.013 9.9375 119.998 12.8664 119.998 16.6868ZM108.63 16.6868C108.63 19.4247 110.599 21.3349 113.202 21.3349C115.806 21.3349 117.775 19.361 117.775 16.6868C117.775 14.0125 115.806 12.0387 113.202 12.0387C110.599 12.0387 108.63 14.0125 108.63 16.6868Z" fill="#03267F"></path><defs><radialGradient id="paint0_radial_2010_99499" cx="0" cy="0" r="1" gradientUnits="userSpaceOnUse" gradientTransform="translate(-8.33107 14.1226) scale(45.6291 45.7487)"><stop stop-color="#A4E03D"></stop><stop offset="0.5" stop-color="#00CC66"></stop><stop offset="1" stop-color="#008461"></stop></radialGradient></defs></svg>